M48
; DRILL file {KiCad 9.0.2} date 2025-05-12T22:42:11-0500
; FORMAT={-:-/ absolute / metric / decimal}
; #@! TF.CreationDate,2025-05-12T22:42:11-05:00
; #@! TF.GenerationSoftware,Kicad,Pcbnew,9.0.2
; #@! TF.FileFunction,Plated,1,2,PTH
FMAT,2
METRIC
; #@! TA.AperFunction,Plated,PTH,ViaDrill
T1C0.300
; #@! TA.AperFunction,Plated,PTH,ComponentDrill
T2C0.400
; #@! TA.AperFunction,Plated,PTH,ComponentDrill
T3C0.600
; #@! TA.AperFunction,Plated,PTH,ComponentDrill
T4C0.950
; #@! TA.AperFunction,Plated,PTH,ComponentDrill
T5C1.000
; #@! TA.AperFunction,Plated,PTH,ComponentDrill
T6C1.092
; #@! TA.AperFunction,Plated,PTH,ComponentDrill
T7C2.200
; #@! TA.AperFunction,Plated,PTH,ComponentDrill
T8C2.300
%
G90
G05
T1
X23.5Y-36.5
X167.38Y-25.38
X187.0Y-34.0
X191.73Y-29.2
X193.0Y-38.5
X194.27Y-29.2
X195.539Y-29.0
X195.539Y-38.5
X196.741Y-38.5
X196.879Y-29.0
X198.079Y-29.0
X199.5Y-44.0
X201.5Y-27.0
X209.184Y-43.684
X210.0Y-33.5
X260.0Y-37.352
X262.0Y-36.0
X316.5Y-32.5
T2
X24.675Y-32.025
X24.675Y-32.875
X24.675Y-33.725
X24.675Y-34.575
X24.675Y-35.425
X24.675Y-36.275
X24.675Y-37.125
X24.675Y-37.975
X26.025Y-32.025
X26.025Y-32.875
X26.025Y-33.725
X26.025Y-34.575
X26.025Y-35.425
X26.025Y-36.275
X26.025Y-37.125
X26.025Y-37.975
X304.05Y-24.675
X304.05Y-26.025
X304.9Y-24.675
X304.9Y-26.025
X305.75Y-24.675
X305.75Y-26.025
X306.6Y-24.675
X306.6Y-26.025
X307.45Y-24.675
X307.45Y-26.025
X308.3Y-24.675
X308.3Y-26.025
X309.15Y-24.675
X309.15Y-26.025
X310.0Y-24.675
X310.0Y-26.025
X314.0Y-32.025
X314.0Y-32.875
X314.0Y-33.725
X314.0Y-34.575
X314.0Y-35.425
X314.0Y-36.275
X314.0Y-37.125
X314.0Y-37.975
X315.35Y-32.025
X315.35Y-32.875
X315.35Y-33.725
X315.35Y-34.575
X315.35Y-35.425
X315.35Y-36.275
X315.35Y-37.125
X315.35Y-37.975
T4
X233.0Y-30.0
X235.5Y-30.0
X237.5Y-30.0
X240.0Y-30.0
X253.0Y-30.0
X255.5Y-30.0
X257.5Y-30.0
X260.0Y-30.0
X273.0Y-30.0
X275.5Y-30.0
X277.5Y-30.0
X280.0Y-30.0
T5
X120.47Y-48.0
X123.01Y-48.0
X125.55Y-48.0
X128.09Y-48.0
X130.63Y-48.0
X133.17Y-48.0
X135.71Y-48.0
X138.25Y-48.0
X140.79Y-48.0
X143.33Y-48.0
X145.87Y-48.0
X148.41Y-48.0
X150.95Y-48.0
X153.49Y-48.0
X156.03Y-48.0
X158.57Y-48.0
X161.11Y-48.0
X163.65Y-48.0
X166.19Y-48.0
X168.73Y-48.0
X171.27Y-48.0
X173.81Y-48.0
X176.35Y-48.0
X178.89Y-48.0
X181.43Y-48.0
X183.97Y-48.0
X186.51Y-48.0
X189.05Y-48.0
X191.59Y-48.0
X194.13Y-48.0
X196.67Y-48.0
X199.21Y-48.0
X201.75Y-48.0
X204.29Y-48.0
X206.83Y-48.0
X209.37Y-48.0
X211.91Y-48.0
X214.45Y-48.0
X216.99Y-48.0
X219.53Y-48.0
T6
X124.68Y-25.38
X124.68Y-40.62
X127.22Y-25.38
X127.22Y-40.62
X129.76Y-25.38
X129.76Y-40.62
X132.3Y-25.38
X132.3Y-40.62
X134.84Y-25.38
X134.84Y-40.62
X137.38Y-25.38
X137.38Y-40.62
X139.92Y-25.38
X139.92Y-40.62
X142.46Y-25.38
X142.46Y-40.62
X145.0Y-25.38
X145.0Y-40.62
X147.54Y-25.38
X147.54Y-40.62
X150.08Y-25.38
X150.08Y-40.62
X152.62Y-25.38
X152.62Y-40.62
X155.16Y-25.38
X155.16Y-40.62
T7
X24.0Y-24.0
X24.0Y-46.0
X316.0Y-24.0
X316.0Y-46.0
T8
X229.93Y-27.29
X243.07Y-27.29
X249.93Y-27.29
X263.07Y-27.29
X269.93Y-27.29
X283.07Y-27.29
T3
G00X22.065Y-30.675
M15
G01X21.265Y-30.675
M16
G05
G00X22.065Y-39.325
M15
G01X21.265Y-39.325
M16
G05
G00X25.795Y-30.675
M15
G01X24.295Y-30.675
M16
G05
G00X25.795Y-39.325
M15
G01X24.295Y-39.325
M16
G05
G00X302.7Y-22.065
M15
G01X302.7Y-21.265
M16
G05
G00X302.7Y-25.795
M15
G01X302.7Y-24.295
M16
G05
G00X311.35Y-22.065
M15
G01X311.35Y-21.265
M16
G05
G00X311.35Y-25.795
M15
G01X311.35Y-24.295
M16
G05
G00X314.23Y-30.675
M15
G01X315.73Y-30.675
M16
G05
G00X314.23Y-39.325
M15
G01X315.73Y-39.325
M16
G05
G00X317.96Y-30.675
M15
G01X318.76Y-30.675
M16
G05
G00X317.96Y-39.325
M15
G01X318.76Y-39.325
M16
G05
M30
