%TF.GenerationSoftware,KiCad,Pcbnew,9.0.2*%
%TF.CreationDate,2025-05-12T22:42:14-05:00*%
%TF.ProjectId,excelsior,65786365-6c73-4696-9f72-2e6b69636164,rev?*%
%TF.SameCoordinates,Original*%
%TF.FileFunction,Paste,Top*%
%TF.FilePolarity,Positive*%
%FSLAX46Y46*%
G04 Gerber Fmt 4.6, Leading zero omitted, Abs format (unit mm)*
G04 Created by KiCad (PCBNEW 9.0.2) date 2025-05-12 22:42:14*
%MOMM*%
%LPD*%
G01*
G04 APERTURE LIST*
G04 Aperture macros list*
%AMRoundRect*
0 Rectangle with rounded corners*
0 $1 Rounding radius*
0 $2 $3 $4 $5 $6 $7 $8 $9 X,Y pos of 4 corners*
0 Add a 4 corners polygon primitive as box body*
4,1,4,$2,$3,$4,$5,$6,$7,$8,$9,$2,$3,0*
0 Add four circle primitives for the rounded corners*
1,1,$1+$1,$2,$3*
1,1,$1+$1,$4,$5*
1,1,$1+$1,$6,$7*
1,1,$1+$1,$8,$9*
0 Add four rect primitives between the rounded corners*
20,1,$1+$1,$2,$3,$4,$5,0*
20,1,$1+$1,$4,$5,$6,$7,0*
20,1,$1+$1,$6,$7,$8,$9,0*
20,1,$1+$1,$8,$9,$2,$3,0*%
G04 Aperture macros list end*
%ADD10RoundRect,0.150000X0.150000X-0.875000X0.150000X0.875000X-0.150000X0.875000X-0.150000X-0.875000X0*%
%ADD11R,2.750000X1.000000*%
%ADD12RoundRect,0.100000X-0.712500X-0.100000X0.712500X-0.100000X0.712500X0.100000X-0.712500X0.100000X0*%
G04 APERTURE END LIST*
D10*
%TO.C,U2*%
X181570000Y-29200000D03*
X182840000Y-29200000D03*
X184110000Y-29200000D03*
X185380000Y-29200000D03*
X186650000Y-29200000D03*
X187920000Y-29200000D03*
X189190000Y-29200000D03*
X190460000Y-29200000D03*
X191730000Y-29200000D03*
X193000000Y-29200000D03*
X194270000Y-29200000D03*
X195540000Y-29200000D03*
X196810000Y-29200000D03*
X198080000Y-29200000D03*
X198080000Y-38500000D03*
X196810000Y-38500000D03*
X195540000Y-38500000D03*
X194270000Y-38500000D03*
X193000000Y-38500000D03*
X191730000Y-38500000D03*
X190460000Y-38500000D03*
X189190000Y-38500000D03*
X187920000Y-38500000D03*
X186650000Y-38500000D03*
X185380000Y-38500000D03*
X184110000Y-38500000D03*
X182840000Y-38500000D03*
X181570000Y-38500000D03*
%TD*%
D11*
%TO.C,SW1*%
X210120000Y-29500000D03*
X215880000Y-29500000D03*
X210120000Y-33500000D03*
X215880000Y-33500000D03*
%TD*%
D12*
%TO.C,U3*%
X253362500Y-34777500D03*
X253362500Y-35412500D03*
X253362500Y-36047500D03*
X253362500Y-36682500D03*
X253362500Y-37317500D03*
X253362500Y-37952500D03*
X253362500Y-38587500D03*
X253362500Y-39222500D03*
X258637500Y-39222500D03*
X258637500Y-38587500D03*
X258637500Y-37952500D03*
X258637500Y-37317500D03*
X258637500Y-36682500D03*
X258637500Y-36047500D03*
X258637500Y-35412500D03*
X258637500Y-34777500D03*
%TD*%
M02*
