%TF.GenerationSoftware,KiCad,Pcbnew,8.0.7*%
%TF.CreationDate,2025-05-14T16:02:52-05:00*%
%TF.ProjectId,usbc_breakout,75736263-5f62-4726-9561-6b6f75742e6b,rev?*%
%TF.SameCoordinates,Original*%
%TF.FileFunction,Copper,L1,Top*%
%TF.FilePolarity,Positive*%
%FSLAX46Y46*%
G04 Gerber Fmt 4.6, Leading zero omitted, Abs format (unit mm)*
G04 Created by KiCad (PCBNEW 8.0.7) date 2025-05-14 16:02:52*
%MOMM*%
%LPD*%
G01*
G04 APERTURE LIST*
%TA.AperFunction,SMDPad,CuDef*%
%ADD10R,0.270000X1.300000*%
%TD*%
%TA.AperFunction,ComponentPad*%
%ADD11O,1.700000X1.200000*%
%TD*%
%TA.AperFunction,ComponentPad*%
%ADD12R,1.700000X1.700000*%
%TD*%
%TA.AperFunction,ComponentPad*%
%ADD13O,1.700000X1.700000*%
%TD*%
%TA.AperFunction,ViaPad*%
%ADD14C,0.600000*%
%TD*%
%TA.AperFunction,Conductor*%
%ADD15C,0.200000*%
%TD*%
G04 APERTURE END LIST*
D10*
%TO.P,P1,A1,GND*%
%TO.N,/GND*%
X4850000Y-7780000D03*
%TO.P,P1,A2,TX1+*%
%TO.N,/P02*%
X5350000Y-7780000D03*
%TO.P,P1,A3,TX1-*%
%TO.N,/P03*%
X5850000Y-7780000D03*
%TO.P,P1,A4,VBUS*%
%TO.N,/VBUS*%
X6350000Y-7780000D03*
%TO.P,P1,A5,CC1*%
%TO.N,/P05*%
X6850000Y-7780000D03*
%TO.P,P1,A6,D+*%
%TO.N,/P06*%
X7350000Y-7780000D03*
%TO.P,P1,A7,D-*%
%TO.N,/P07*%
X7850000Y-7780000D03*
%TO.P,P1,A8,SBU1*%
%TO.N,/P08*%
X8350000Y-7780000D03*
%TO.P,P1,A9,VBUS*%
%TO.N,/VBUS*%
X8850000Y-7780000D03*
%TO.P,P1,A10,RX2-*%
%TO.N,/P10*%
X9350000Y-7780000D03*
%TO.P,P1,A11,RX2+*%
%TO.N,/P11*%
X9850000Y-7780000D03*
%TO.P,P1,A12,GND*%
%TO.N,/GND*%
X10350000Y-7780000D03*
%TO.P,P1,B1,GND*%
X10350000Y-11280000D03*
%TO.P,P1,B2,TX2+*%
%TO.N,/P02*%
X9850000Y-11280000D03*
%TO.P,P1,B3,TX2-*%
%TO.N,/P03*%
X9350000Y-11280000D03*
%TO.P,P1,B4,VBUS*%
%TO.N,/VBUS*%
X8850000Y-11280000D03*
%TO.P,P1,B5,CC2*%
%TO.N,/P05*%
X8350000Y-11280000D03*
%TO.P,P1,B6,D+*%
%TO.N,/P06*%
X7850000Y-11280000D03*
%TO.P,P1,B7,D-*%
%TO.N,/P07*%
X7350000Y-11280000D03*
%TO.P,P1,B8,SBU2*%
%TO.N,/P08*%
X6850000Y-11280000D03*
%TO.P,P1,B9,VBUS*%
%TO.N,/VBUS*%
X6350000Y-11280000D03*
%TO.P,P1,B10,RX1-*%
%TO.N,/P10*%
X5850000Y-11280000D03*
%TO.P,P1,B11,RX1+*%
%TO.N,/P11*%
X5350000Y-11280000D03*
%TO.P,P1,B12,GND*%
%TO.N,/GND*%
X4850000Y-11280000D03*
D11*
%TO.P,P1,S1,SHIELD*%
X3500000Y-8060000D03*
X3500000Y-11000000D03*
X11700000Y-8060000D03*
X11700000Y-11000000D03*
%TD*%
D12*
%TO.P,J3,1,Pin_1*%
%TO.N,/VBUS*%
X2460000Y-2000000D03*
D13*
%TO.P,J3,2,Pin_2*%
%TO.N,/P07*%
X5000000Y-2000000D03*
%TO.P,J3,3,Pin_3*%
%TO.N,/P08*%
X7540000Y-2000000D03*
%TO.P,J3,4,Pin_4*%
%TO.N,/P10*%
X10080000Y-2000000D03*
%TO.P,J3,5,Pin_5*%
%TO.N,/P11*%
X12620000Y-2000000D03*
%TD*%
D12*
%TO.P,J2,1,Pin_1*%
%TO.N,/GND*%
X2460000Y-17240000D03*
D13*
%TO.P,J2,2,Pin_2*%
%TO.N,/P02*%
X5000000Y-17240000D03*
%TO.P,J2,3,Pin_3*%
%TO.N,/P03*%
X7540000Y-17240000D03*
%TO.P,J2,4,Pin_4*%
%TO.N,/P05*%
X10080000Y-17240000D03*
%TO.P,J2,5,Pin_5*%
%TO.N,/P06*%
X12620000Y-17240000D03*
%TD*%
D14*
%TO.N,/GND*%
X1250000Y-14750000D03*
X13750000Y-14750000D03*
X13750000Y-4500000D03*
X1250000Y-4500000D03*
%TO.N,/VBUS*%
X8000000Y-9000000D03*
X7000000Y-10000000D03*
%TO.N,/P07*%
X9250000Y-15000000D03*
%TO.N,/P05*%
X10250000Y-14000000D03*
%TO.N,/P08*%
X5000000Y-14000000D03*
%TO.N,/P03*%
X11000000Y-13250000D03*
%TO.N,/P10*%
X4250000Y-13250000D03*
%TO.N,/P02*%
X11750000Y-12500000D03*
%TO.N,/P11*%
X3500000Y-12500000D03*
%TO.N,/P08*%
X9125000Y-6125000D03*
%TO.N,/P10*%
X11000000Y-5750000D03*
%TO.N,/P07*%
X8125000Y-6125000D03*
%TO.N,/P05*%
X7125000Y-6125000D03*
%TO.N,/P03*%
X4250000Y-5750000D03*
%TO.N,/P11*%
X11750000Y-6500000D03*
%TO.N,/P02*%
X3500000Y-6500000D03*
%TD*%
D15*
%TO.N,/P05*%
X13770000Y-17880000D02*
X13250000Y-18400000D01*
X13770000Y-16763654D02*
X13770000Y-17880000D01*
X10250000Y-14000000D02*
X11006346Y-14000000D01*
X11006346Y-14000000D02*
X13770000Y-16763654D01*
X13250000Y-18400000D02*
X11240000Y-18400000D01*
X11240000Y-18400000D02*
X10080000Y-17240000D01*
%TO.N,/VBUS*%
X8850000Y-8665000D02*
X8850000Y-7780000D01*
X8515000Y-9000000D02*
X8850000Y-8665000D01*
X8000000Y-9000000D02*
X8515000Y-9000000D01*
X6745000Y-10000000D02*
X7000000Y-10000000D01*
X6350000Y-10395000D02*
X6745000Y-10000000D01*
X6350000Y-11280000D02*
X6350000Y-10395000D01*
%TO.N,/P06*%
X7350000Y-9350000D02*
X7850000Y-9850000D01*
X7350000Y-7780000D02*
X7350000Y-9350000D01*
X7850000Y-9850000D02*
X7850000Y-11280000D01*
%TO.N,/P07*%
X7850000Y-6400000D02*
X7850000Y-7780000D01*
X8125000Y-6125000D02*
X7850000Y-6400000D01*
%TO.N,/P08*%
X8350000Y-6900000D02*
X8350000Y-7780000D01*
X9125000Y-3585000D02*
X7540000Y-2000000D01*
X9125000Y-6125000D02*
X9125000Y-3585000D01*
X9125000Y-6125000D02*
X8350000Y-6900000D01*
%TO.N,/P05*%
X6850000Y-6600000D02*
X6850000Y-7780000D01*
X7125000Y-6125000D02*
X7125000Y-6325000D01*
X7125000Y-6325000D02*
X6850000Y-6600000D01*
%TO.N,/P07*%
X5000000Y-3000000D02*
X5000000Y-2000000D01*
X8125000Y-6125000D02*
X5000000Y-3000000D01*
%TO.N,/P06*%
X12315686Y-17000000D02*
X12585000Y-17000000D01*
X7850000Y-12534314D02*
X12315686Y-17000000D01*
X7850000Y-11280000D02*
X7850000Y-12534314D01*
%TO.N,/P07*%
X7350000Y-12600000D02*
X7350000Y-11280000D01*
X9250000Y-14500000D02*
X7350000Y-12600000D01*
X9250000Y-15000000D02*
X9250000Y-14500000D01*
%TO.N,/P05*%
X8350000Y-12100000D02*
X10250000Y-14000000D01*
X8350000Y-11280000D02*
X8350000Y-12100000D01*
%TO.N,/P08*%
X6850000Y-12150000D02*
X5000000Y-14000000D01*
X6850000Y-11280000D02*
X6850000Y-12150000D01*
%TO.N,/P03*%
X10369314Y-13250000D02*
X11000000Y-13250000D01*
X9350000Y-12230686D02*
X10369314Y-13250000D01*
X9350000Y-11280000D02*
X9350000Y-12230686D01*
%TO.N,/P10*%
X4830686Y-13250000D02*
X4250000Y-13250000D01*
X5850000Y-12230686D02*
X4830686Y-13250000D01*
X5850000Y-11280000D02*
X5850000Y-12230686D01*
%TO.N,/P02*%
X10185000Y-12500000D02*
X11750000Y-12500000D01*
X9850000Y-12165000D02*
X10185000Y-12500000D01*
X9850000Y-11280000D02*
X9850000Y-12165000D01*
%TO.N,/P11*%
X5350000Y-12165000D02*
X5015000Y-12500000D01*
X5015000Y-12500000D02*
X3500000Y-12500000D01*
X5350000Y-11280000D02*
X5350000Y-12165000D01*
X12620000Y-5630000D02*
X11750000Y-6500000D01*
X12620000Y-2000000D02*
X12620000Y-5630000D01*
%TO.N,/P10*%
X11000000Y-2920000D02*
X11000000Y-5750000D01*
X10080000Y-2000000D02*
X11000000Y-2920000D01*
%TO.N,/VBUS*%
X2460000Y-2775686D02*
X2460000Y-2000000D01*
X6350000Y-6665686D02*
X2460000Y-2775686D01*
X6350000Y-7780000D02*
X6350000Y-6665686D01*
%TO.N,/P10*%
X10429314Y-5750000D02*
X11000000Y-5750000D01*
X9350000Y-6829314D02*
X10429314Y-5750000D01*
X9350000Y-7780000D02*
X9350000Y-6829314D01*
%TO.N,/P03*%
X5850000Y-6829314D02*
X5850000Y-7780000D01*
X4770686Y-5750000D02*
X5850000Y-6829314D01*
X4250000Y-5750000D02*
X4770686Y-5750000D01*
%TO.N,/P11*%
X10245000Y-6500000D02*
X11750000Y-6500000D01*
X9850000Y-6895000D02*
X10245000Y-6500000D01*
X9850000Y-7780000D02*
X9850000Y-6895000D01*
%TO.N,/P02*%
X4955000Y-6500000D02*
X3500000Y-6500000D01*
X5350000Y-6895000D02*
X4955000Y-6500000D01*
X5350000Y-7780000D02*
X5350000Y-6895000D01*
%TO.N,/GND*%
X11420000Y-11280000D02*
X11700000Y-11000000D01*
X10350000Y-11280000D02*
X11420000Y-11280000D01*
X10350000Y-7780000D02*
X11420000Y-7780000D01*
X11420000Y-7780000D02*
X11700000Y-8060000D01*
X3780000Y-11280000D02*
X3500000Y-11000000D01*
X4850000Y-11280000D02*
X3780000Y-11280000D01*
X3780000Y-7780000D02*
X3500000Y-8060000D01*
X4850000Y-7780000D02*
X3780000Y-7780000D01*
%TO.N,/VBUS*%
X8850000Y-11280000D02*
X8850000Y-7780000D01*
X6350000Y-7780000D02*
X6350000Y-11280000D01*
%TD*%
%TA.AperFunction,Conductor*%
%TO.N,/GND*%
G36*
X1336936Y-520185D02*
G01*
X1382691Y-572989D01*
X1392635Y-642147D01*
X1363610Y-705703D01*
X1344208Y-723766D01*
X1252455Y-792452D01*
X1252452Y-792455D01*
X1166206Y-907664D01*
X1166202Y-907671D01*
X1115908Y-1042517D01*
X1109501Y-1102116D01*
X1109500Y-1102135D01*
X1109500Y-2897870D01*
X1109501Y-2897876D01*
X1115908Y-2957483D01*
X1166202Y-3092328D01*
X1166206Y-3092335D01*
X1252452Y-3207544D01*
X1252455Y-3207547D01*
X1367664Y-3293793D01*
X1367671Y-3293797D01*
X1390563Y-3302335D01*
X1502517Y-3344091D01*
X1562127Y-3350500D01*
X2134216Y-3350499D01*
X2201255Y-3370183D01*
X2221897Y-3386818D01*
X3765234Y-4930155D01*
X3798719Y-4991478D01*
X3793735Y-5061170D01*
X3752993Y-5115593D01*
X3753188Y-5115837D01*
X3752251Y-5116583D01*
X3751863Y-5117103D01*
X3749969Y-5118403D01*
X3747739Y-5120182D01*
X3620184Y-5247737D01*
X3524210Y-5400478D01*
X3464630Y-5570750D01*
X3461132Y-5601798D01*
X3434064Y-5666211D01*
X3376468Y-5705765D01*
X3351798Y-5711132D01*
X3320750Y-5714630D01*
X3150478Y-5774210D01*
X2997737Y-5870184D01*
X2870184Y-5997737D01*
X2774211Y-6150476D01*
X2714631Y-6320745D01*
X2714630Y-6320750D01*
X2694435Y-6499996D01*
X2694435Y-6500003D01*
X2714630Y-6679249D01*
X2714631Y-6679254D01*
X2774211Y-6849523D01*
X2805958Y-6900048D01*
X2824958Y-6967285D01*
X2804590Y-7034120D01*
X2757260Y-7076504D01*
X2673478Y-7119194D01*
X2533397Y-7220967D01*
X2410967Y-7343397D01*
X2309195Y-7483475D01*
X2243814Y-7611795D01*
X2195840Y-7662591D01*
X2133329Y-7679500D01*
X2027525Y-7679500D01*
X1898993Y-7713940D01*
X1887511Y-7717017D01*
X1761988Y-7789488D01*
X1761982Y-7789493D01*
X1659493Y-7891982D01*
X1659488Y-7891988D01*
X1587017Y-8017511D01*
X1587016Y-8017515D01*
X1549500Y-8157525D01*
X1549500Y-8302475D01*
X1584405Y-8432741D01*
X1587017Y-8442488D01*
X1659488Y-8568011D01*
X1659490Y-8568013D01*
X1659491Y-8568015D01*
X1761985Y-8670509D01*
X1761986Y-8670510D01*
X1761988Y-8670511D01*
X1887511Y-8742982D01*
X1887512Y-8742982D01*
X1887515Y-8742984D01*
X2027525Y-8780500D01*
X2027528Y-8780500D01*
X2172472Y-8780500D01*
X2172475Y-8780500D01*
X2294492Y-8747805D01*
X2364339Y-8749468D01*
X2414264Y-8779899D01*
X2533397Y-8899032D01*
X2673475Y-9000804D01*
X2827742Y-9079408D01*
X2992415Y-9132914D01*
X3163429Y-9160000D01*
X3250000Y-9160000D01*
X3250000Y-8460000D01*
X3750000Y-8460000D01*
X3750000Y-9160000D01*
X3836571Y-9160000D01*
X4007584Y-9132914D01*
X4172257Y-9079408D01*
X4326525Y-9000803D01*
X4438245Y-8919634D01*
X4504052Y-8896154D01*
X4554465Y-8903771D01*
X4607616Y-8923595D01*
X4607627Y-8923598D01*
X4667155Y-8929999D01*
X4667172Y-8930000D01*
X4715000Y-8930000D01*
X4715000Y-8928627D01*
X4734685Y-8861588D01*
X4787489Y-8815833D01*
X4856647Y-8805889D01*
X4913310Y-8829360D01*
X4935310Y-8845829D01*
X4977182Y-8901762D01*
X4981676Y-8926676D01*
X4985000Y-8930000D01*
X5032828Y-8930000D01*
X5032844Y-8929999D01*
X5084399Y-8924456D01*
X5110902Y-8924455D01*
X5167127Y-8930500D01*
X5532872Y-8930499D01*
X5586743Y-8924708D01*
X5613254Y-8924708D01*
X5638756Y-8927450D01*
X5703307Y-8954188D01*
X5743155Y-9011581D01*
X5749500Y-9050739D01*
X5749500Y-10009261D01*
X5729815Y-10076300D01*
X5677011Y-10122055D01*
X5638752Y-10132551D01*
X5613252Y-10135292D01*
X5586747Y-10135292D01*
X5571723Y-10133676D01*
X5532873Y-10129500D01*
X5532866Y-10129500D01*
X5167130Y-10129500D01*
X5167120Y-10129501D01*
X5110903Y-10135544D01*
X5084396Y-10135544D01*
X5032828Y-10130000D01*
X4985000Y-10130000D01*
X4978724Y-10136275D01*
X4965315Y-10181942D01*
X4935310Y-10214170D01*
X4913310Y-10230639D01*
X4847846Y-10255056D01*
X4779573Y-10240204D01*
X4730168Y-10190799D01*
X4715000Y-10131372D01*
X4715000Y-10130000D01*
X4667155Y-10130000D01*
X4607627Y-10136401D01*
X4607620Y-10136403D01*
X4554462Y-10156229D01*
X4484770Y-10161212D01*
X4438246Y-10140365D01*
X4326524Y-10059195D01*
X4172257Y-9980591D01*
X4007584Y-9927085D01*
X3836571Y-9900000D01*
X3750000Y-9900000D01*
X3750000Y-10600000D01*
X3250000Y-10600000D01*
X3250000Y-9900000D01*
X3163429Y-9900000D01*
X2992415Y-9927085D01*
X2827742Y-9980591D01*
X2673475Y-10059195D01*
X2533397Y-10160967D01*
X2410967Y-10283397D01*
X2309195Y-10423475D01*
X2230591Y-10577744D01*
X2177085Y-10742415D01*
X2175884Y-10749999D01*
X2175885Y-10750000D01*
X2934314Y-10750000D01*
X2929920Y-10754394D01*
X2877259Y-10845606D01*
X2850000Y-10947339D01*
X2850000Y-11052661D01*
X2877259Y-11154394D01*
X2929920Y-11245606D01*
X2934314Y-11250000D01*
X2175885Y-11250000D01*
X2177085Y-11257584D01*
X2230591Y-11422255D01*
X2309195Y-11576524D01*
X2410967Y-11716602D01*
X2533397Y-11839032D01*
X2673477Y-11940805D01*
X2728701Y-11968943D01*
X2779497Y-12016917D01*
X2796293Y-12084738D01*
X2777405Y-12145393D01*
X2774210Y-12150477D01*
X2774210Y-12150478D01*
X2714633Y-12320737D01*
X2714630Y-12320750D01*
X2694435Y-12499996D01*
X2694435Y-12500003D01*
X2714630Y-12679249D01*
X2714631Y-12679254D01*
X2774211Y-12849523D01*
X2852573Y-12974235D01*
X2870184Y-13002262D01*
X2997738Y-13129816D01*
X3150478Y-13225789D01*
X3320745Y-13285368D01*
X3351795Y-13288866D01*
X3416207Y-13315930D01*
X3455763Y-13373524D01*
X3461132Y-13398201D01*
X3464630Y-13429249D01*
X3524210Y-13599521D01*
X3524211Y-13599522D01*
X3620184Y-13752262D01*
X3747738Y-13879816D01*
X3900478Y-13975789D01*
X4070745Y-14035368D01*
X4101795Y-14038866D01*
X4166207Y-14065930D01*
X4205763Y-14123524D01*
X4211132Y-14148201D01*
X4214630Y-14179249D01*
X4274210Y-14349521D01*
X4274211Y-14349522D01*
X4370184Y-14502262D01*
X4497738Y-14629816D01*
X4650478Y-14725789D01*
X4820745Y-14785368D01*
X4820750Y-14785369D01*
X4999996Y-14805565D01*
X5000000Y-14805565D01*
X5000004Y-14805565D01*
X5179249Y-14785369D01*
X5179252Y-14785368D01*
X5179255Y-14785368D01*
X5349522Y-14725789D01*
X5502262Y-14629816D01*
X5629816Y-14502262D01*
X5725789Y-14349522D01*
X5785368Y-14179255D01*
X5795161Y-14092329D01*
X5822226Y-14027918D01*
X5830690Y-14018543D01*
X6787318Y-13061916D01*
X6848641Y-13028431D01*
X6918333Y-13033415D01*
X6962680Y-13061916D01*
X6988349Y-13087585D01*
X6988355Y-13087590D01*
X8476123Y-14575359D01*
X8509608Y-14636682D01*
X8505484Y-14703994D01*
X8464632Y-14820742D01*
X8464630Y-14820750D01*
X8444435Y-14999996D01*
X8444435Y-15000003D01*
X8464630Y-15179249D01*
X8464631Y-15179254D01*
X8524211Y-15349523D01*
X8585880Y-15447668D01*
X8620184Y-15502262D01*
X8747738Y-15629816D01*
X8900478Y-15725789D01*
X9014637Y-15765735D01*
X9070745Y-15785368D01*
X9070750Y-15785369D01*
X9249996Y-15805565D01*
X9250000Y-15805565D01*
X9250003Y-15805565D01*
X9433365Y-15784905D01*
X9502187Y-15796959D01*
X9553567Y-15844308D01*
X9571191Y-15911919D01*
X9549465Y-15978325D01*
X9499654Y-16020507D01*
X9402171Y-16065964D01*
X9402169Y-16065965D01*
X9208597Y-16201505D01*
X9041505Y-16368597D01*
X8911575Y-16554158D01*
X8856998Y-16597783D01*
X8787500Y-16604977D01*
X8725145Y-16573454D01*
X8708425Y-16554158D01*
X8578494Y-16368597D01*
X8411402Y-16201506D01*
X8411395Y-16201501D01*
X8217834Y-16065967D01*
X8217830Y-16065965D01*
X8120345Y-16020507D01*
X8003663Y-15966097D01*
X8003659Y-15966096D01*
X8003655Y-15966094D01*
X7775413Y-15904938D01*
X7775403Y-15904936D01*
X7540001Y-15884341D01*
X7539999Y-15884341D01*
X7304596Y-15904936D01*
X7304586Y-15904938D01*
X7076344Y-15966094D01*
X7076335Y-15966098D01*
X6862171Y-16065964D01*
X6862169Y-16065965D01*
X6668597Y-16201505D01*
X6501505Y-16368597D01*
X6371575Y-16554158D01*
X6316998Y-16597783D01*
X6247500Y-16604977D01*
X6185145Y-16573454D01*
X6168425Y-16554158D01*
X6038494Y-16368597D01*
X5871402Y-16201506D01*
X5871395Y-16201501D01*
X5677834Y-16065967D01*
X5677830Y-16065965D01*
X5580345Y-16020507D01*
X5463663Y-15966097D01*
X5463659Y-15966096D01*
X5463655Y-15966094D01*
X5235413Y-15904938D01*
X5235403Y-15904936D01*
X5000001Y-15884341D01*
X4999999Y-15884341D01*
X4764596Y-15904936D01*
X4764586Y-15904938D01*
X4536344Y-15966094D01*
X4536335Y-15966098D01*
X4322171Y-16065964D01*
X4322169Y-16065965D01*
X4128600Y-16201503D01*
X4006284Y-16323819D01*
X3944961Y-16357303D01*
X3875269Y-16352319D01*
X3819336Y-16310447D01*
X3802421Y-16279470D01*
X3753354Y-16147913D01*
X3753350Y-16147906D01*
X3667190Y-16032812D01*
X3667187Y-16032809D01*
X3552093Y-15946649D01*
X3552086Y-15946645D01*
X3417379Y-15896403D01*
X3417372Y-15896401D01*
X3357844Y-15890000D01*
X2710000Y-15890000D01*
X2710000Y-16806988D01*
X2652993Y-16774075D01*
X2525826Y-16740000D01*
X2394174Y-16740000D01*
X2267007Y-16774075D01*
X2210000Y-16806988D01*
X2210000Y-15890000D01*
X1562155Y-15890000D01*
X1502627Y-15896401D01*
X1502620Y-15896403D01*
X1367913Y-15946645D01*
X1367906Y-15946649D01*
X1252812Y-16032809D01*
X1252809Y-16032812D01*
X1166649Y-16147906D01*
X1166645Y-16147913D01*
X1116403Y-16282620D01*
X1116401Y-16282627D01*
X1110000Y-16342155D01*
X1110000Y-16990000D01*
X2026988Y-16990000D01*
X1994075Y-17047007D01*
X1960000Y-17174174D01*
X1960000Y-17305826D01*
X1994075Y-17432993D01*
X2026988Y-17490000D01*
X1110000Y-17490000D01*
X1110000Y-18137844D01*
X1116401Y-18197372D01*
X1116403Y-18197379D01*
X1166676Y-18332167D01*
X1171660Y-18401858D01*
X1138175Y-18463181D01*
X1076852Y-18496666D01*
X1050494Y-18499500D01*
X624500Y-18499500D01*
X557461Y-18479815D01*
X511706Y-18427011D01*
X500500Y-18375500D01*
X500500Y-624500D01*
X520185Y-557461D01*
X572989Y-511706D01*
X624500Y-500500D01*
X1269897Y-500500D01*
X1336936Y-520185D01*
G37*
%TD.AperFunction*%
%TA.AperFunction,Conductor*%
G36*
X14442539Y-520185D02*
G01*
X14488294Y-572989D01*
X14499500Y-624500D01*
X14499500Y-16363409D01*
X14479815Y-16430448D01*
X14427011Y-16476203D01*
X14357853Y-16486147D01*
X14294297Y-16457122D01*
X14268113Y-16425409D01*
X14250522Y-16394941D01*
X14250521Y-16394940D01*
X14250520Y-16394938D01*
X14138716Y-16283134D01*
X14138715Y-16283133D01*
X14134385Y-16278803D01*
X14134374Y-16278793D01*
X11691260Y-13835679D01*
X11657775Y-13774356D01*
X11662759Y-13704664D01*
X11673944Y-13682031D01*
X11725789Y-13599522D01*
X11785368Y-13429255D01*
X11788866Y-13398203D01*
X11815930Y-13333792D01*
X11873523Y-13294235D01*
X11898196Y-13288867D01*
X11929255Y-13285368D01*
X12099522Y-13225789D01*
X12252262Y-13129816D01*
X12379816Y-13002262D01*
X12475789Y-12849522D01*
X12535368Y-12679255D01*
X12555565Y-12500000D01*
X12535368Y-12320745D01*
X12475789Y-12150478D01*
X12460473Y-12126102D01*
X12441473Y-12058865D01*
X12461841Y-11992030D01*
X12509175Y-11949644D01*
X12526522Y-11940805D01*
X12666602Y-11839032D01*
X12789032Y-11716602D01*
X12890804Y-11576524D01*
X12969408Y-11422255D01*
X13022914Y-11257584D01*
X13024115Y-11250000D01*
X12265686Y-11250000D01*
X12270080Y-11245606D01*
X12322741Y-11154394D01*
X12350000Y-11052661D01*
X12350000Y-10947339D01*
X12322741Y-10845606D01*
X12270080Y-10754394D01*
X12265686Y-10750000D01*
X13024115Y-10750000D01*
X13024115Y-10749999D01*
X13022914Y-10742415D01*
X12969408Y-10577744D01*
X12890804Y-10423475D01*
X12789032Y-10283397D01*
X12666602Y-10160967D01*
X12526524Y-10059195D01*
X12372257Y-9980591D01*
X12207584Y-9927085D01*
X12036571Y-9900000D01*
X11950000Y-9900000D01*
X11950000Y-10600000D01*
X11450000Y-10600000D01*
X11450000Y-9900000D01*
X11363429Y-9900000D01*
X11192415Y-9927085D01*
X11027742Y-9980591D01*
X10873475Y-10059195D01*
X10761753Y-10140366D01*
X10695946Y-10163845D01*
X10645535Y-10156229D01*
X10592379Y-10136403D01*
X10592372Y-10136401D01*
X10532844Y-10130000D01*
X10485000Y-10130000D01*
X10485000Y-10131372D01*
X10465315Y-10198411D01*
X10412511Y-10244166D01*
X10343353Y-10254110D01*
X10286690Y-10230639D01*
X10264690Y-10214170D01*
X10222818Y-10158237D01*
X10218323Y-10133323D01*
X10215000Y-10130000D01*
X10167155Y-10130000D01*
X10115602Y-10135544D01*
X10089097Y-10135544D01*
X10032873Y-10129500D01*
X10032863Y-10129500D01*
X9667130Y-10129500D01*
X9667123Y-10129501D01*
X9613253Y-10135292D01*
X9586743Y-10135291D01*
X9561243Y-10132549D01*
X9496692Y-10105810D01*
X9456845Y-10048417D01*
X9450500Y-10009260D01*
X9450500Y-9050738D01*
X9470185Y-8983699D01*
X9522989Y-8937944D01*
X9561242Y-8927449D01*
X9586753Y-8924707D01*
X9613246Y-8924707D01*
X9667127Y-8930500D01*
X10032872Y-8930499D01*
X10089096Y-8924455D01*
X10115601Y-8924456D01*
X10167155Y-8929999D01*
X10167172Y-8930000D01*
X10215000Y-8930000D01*
X10221275Y-8923724D01*
X10234685Y-8878057D01*
X10264690Y-8845829D01*
X10286690Y-8829360D01*
X10352154Y-8804943D01*
X10420427Y-8819795D01*
X10469832Y-8869200D01*
X10485000Y-8928627D01*
X10485000Y-8930000D01*
X10532828Y-8930000D01*
X10532844Y-8929999D01*
X10592376Y-8923598D01*
X10645534Y-8903771D01*
X10715226Y-8898787D01*
X10761753Y-8919634D01*
X10873475Y-9000804D01*
X11027742Y-9079408D01*
X11192415Y-9132914D01*
X11363429Y-9160000D01*
X11450000Y-9160000D01*
X11450000Y-8460000D01*
X11950000Y-8460000D01*
X11950000Y-9160000D01*
X12036571Y-9160000D01*
X12207584Y-9132914D01*
X12372257Y-9079408D01*
X12526524Y-9000804D01*
X12666598Y-8899035D01*
X12785734Y-8779899D01*
X12847057Y-8746414D01*
X12905506Y-8747804D01*
X13027525Y-8780500D01*
X13027528Y-8780500D01*
X13172472Y-8780500D01*
X13172475Y-8780500D01*
X13312485Y-8742984D01*
X13438015Y-8670509D01*
X13540509Y-8568015D01*
X13612984Y-8442485D01*
X13650500Y-8302475D01*
X13650500Y-8157525D01*
X13612984Y-8017515D01*
X13540509Y-7891985D01*
X13438015Y-7789491D01*
X13438013Y-7789490D01*
X13438011Y-7789488D01*
X13312488Y-7717017D01*
X13312489Y-7717017D01*
X13301006Y-7713940D01*
X13172475Y-7679500D01*
X13066672Y-7679500D01*
X12999633Y-7659815D01*
X12956187Y-7611795D01*
X12890804Y-7483475D01*
X12789032Y-7343397D01*
X12666602Y-7220967D01*
X12526524Y-7119195D01*
X12480614Y-7095803D01*
X12429818Y-7047828D01*
X12413023Y-6980007D01*
X12431916Y-6919345D01*
X12444041Y-6900048D01*
X12475789Y-6849522D01*
X12535368Y-6679255D01*
X12545161Y-6592329D01*
X12572226Y-6527918D01*
X12580689Y-6518544D01*
X13100520Y-5998716D01*
X13179577Y-5861785D01*
X13220501Y-5709057D01*
X13220501Y-5550942D01*
X13220501Y-5543347D01*
X13220500Y-5543329D01*
X13220500Y-3289090D01*
X13240185Y-3222051D01*
X13292101Y-3176706D01*
X13297830Y-3174035D01*
X13491401Y-3038495D01*
X13658495Y-2871401D01*
X13794035Y-2677830D01*
X13893903Y-2463663D01*
X13955063Y-2235408D01*
X13975659Y-2000000D01*
X13955063Y-1764592D01*
X13893903Y-1536337D01*
X13794035Y-1322171D01*
X13788425Y-1314158D01*
X13658494Y-1128597D01*
X13491402Y-961506D01*
X13491395Y-961501D01*
X13297834Y-825967D01*
X13297830Y-825965D01*
X13225968Y-792455D01*
X13106790Y-736881D01*
X13054352Y-690710D01*
X13035200Y-623516D01*
X13055416Y-556635D01*
X13108581Y-511300D01*
X13159196Y-500500D01*
X14375500Y-500500D01*
X14442539Y-520185D01*
G37*
%TD.AperFunction*%
%TD*%
M02*
