%TF.GenerationSoftware,KiCad,Pcbnew,8.0.7*%
%TF.CreationDate,2025-05-14T16:02:52-05:00*%
%TF.ProjectId,usbc_breakout,75736263-5f62-4726-9561-6b6f75742e6b,rev?*%
%TF.SameCoordinates,Original*%
%TF.FileFunction,Copper,L2,Bot*%
%TF.FilePolarity,Positive*%
%FSLAX46Y46*%
G04 Gerber Fmt 4.6, Leading zero omitted, Abs format (unit mm)*
G04 Created by KiCad (PCBNEW 8.0.7) date 2025-05-14 16:02:52*
%MOMM*%
%LPD*%
G01*
G04 APERTURE LIST*
%TA.AperFunction,ComponentPad*%
%ADD10O,1.700000X1.200000*%
%TD*%
%TA.AperFunction,ComponentPad*%
%ADD11R,1.700000X1.700000*%
%TD*%
%TA.AperFunction,ComponentPad*%
%ADD12O,1.700000X1.700000*%
%TD*%
%TA.AperFunction,ViaPad*%
%ADD13C,0.600000*%
%TD*%
%TA.AperFunction,Conductor*%
%ADD14C,0.200000*%
%TD*%
G04 APERTURE END LIST*
D10*
%TO.P,P1,S1,SHIELD*%
%TO.N,/GND*%
X3500000Y-8060000D03*
X3500000Y-11000000D03*
X11700000Y-8060000D03*
X11700000Y-11000000D03*
%TD*%
D11*
%TO.P,J3,1,Pin_1*%
%TO.N,/VBUS*%
X2460000Y-2000000D03*
D12*
%TO.P,J3,2,Pin_2*%
%TO.N,/P07*%
X5000000Y-2000000D03*
%TO.P,J3,3,Pin_3*%
%TO.N,/P08*%
X7540000Y-2000000D03*
%TO.P,J3,4,Pin_4*%
%TO.N,/P10*%
X10080000Y-2000000D03*
%TO.P,J3,5,Pin_5*%
%TO.N,/P11*%
X12620000Y-2000000D03*
%TD*%
D11*
%TO.P,J2,1,Pin_1*%
%TO.N,/GND*%
X2460000Y-17240000D03*
D12*
%TO.P,J2,2,Pin_2*%
%TO.N,/P02*%
X5000000Y-17240000D03*
%TO.P,J2,3,Pin_3*%
%TO.N,/P03*%
X7540000Y-17240000D03*
%TO.P,J2,4,Pin_4*%
%TO.N,/P05*%
X10080000Y-17240000D03*
%TO.P,J2,5,Pin_5*%
%TO.N,/P06*%
X12620000Y-17240000D03*
%TD*%
D13*
%TO.N,/GND*%
X1250000Y-14750000D03*
X13750000Y-14750000D03*
X13750000Y-4500000D03*
X1250000Y-4500000D03*
%TO.N,/VBUS*%
X8000000Y-9000000D03*
X7000000Y-10000000D03*
%TO.N,/P07*%
X9250000Y-15000000D03*
%TO.N,/P05*%
X10250000Y-14000000D03*
%TO.N,/P08*%
X5000000Y-14000000D03*
%TO.N,/P03*%
X11000000Y-13250000D03*
%TO.N,/P10*%
X4250000Y-13250000D03*
%TO.N,/P02*%
X11750000Y-12500000D03*
%TO.N,/P11*%
X3500000Y-12500000D03*
%TO.N,/P08*%
X9125000Y-6125000D03*
%TO.N,/P10*%
X11000000Y-5750000D03*
%TO.N,/P07*%
X8125000Y-6125000D03*
%TO.N,/P05*%
X7125000Y-6125000D03*
%TO.N,/P03*%
X4250000Y-5750000D03*
%TO.N,/P11*%
X11750000Y-6500000D03*
%TO.N,/P02*%
X3500000Y-6500000D03*
%TD*%
D14*
%TO.N,/VBUS*%
X7000000Y-10000000D02*
X8000000Y-9000000D01*
%TO.N,/P03*%
X11848529Y-13250000D02*
X11000000Y-13250000D01*
X12500000Y-12598529D02*
X11848529Y-13250000D01*
X10550000Y-11372792D02*
X11077208Y-11900000D01*
X12500000Y-12401471D02*
X12500000Y-12598529D01*
X10550000Y-10550000D02*
X10550000Y-11372792D01*
X5750000Y-5750000D02*
X10550000Y-10550000D01*
X4250000Y-5750000D02*
X5750000Y-5750000D01*
X11077208Y-11900000D02*
X11998529Y-11900000D01*
X11998529Y-11900000D02*
X12500000Y-12401471D01*
%TO.N,/P02*%
X8000000Y-12500000D02*
X9465000Y-12500000D01*
X4122792Y-7160000D02*
X4650000Y-7687208D01*
X4650000Y-7687208D02*
X4650000Y-9150000D01*
X4650000Y-9150000D02*
X8000000Y-12500000D01*
X3500000Y-7160000D02*
X4122792Y-7160000D01*
X3500000Y-6500000D02*
X3500000Y-7160000D01*
%TO.N,/P08*%
X5150000Y-13850000D02*
X5000000Y-14000000D01*
X5150000Y-10561522D02*
X5150000Y-13850000D01*
X2350000Y-9600000D02*
X4188478Y-9600000D01*
X3850000Y-5150000D02*
X1450000Y-7550000D01*
X1450000Y-7550000D02*
X1450000Y-8700000D01*
X8150000Y-5150000D02*
X3850000Y-5150000D01*
X9125000Y-6125000D02*
X8150000Y-5150000D01*
X1450000Y-8700000D02*
X2350000Y-9600000D01*
X4188478Y-9600000D02*
X5150000Y-10561522D01*
%TO.N,/P11*%
X3477208Y-12500000D02*
X3500000Y-12500000D01*
X600000Y-9622792D02*
X3477208Y-12500000D01*
X3518628Y-4350000D02*
X600000Y-7268628D01*
X10448529Y-4350000D02*
X3518628Y-4350000D01*
X11750000Y-5651471D02*
X10448529Y-4350000D01*
X11750000Y-6500000D02*
X11750000Y-5651471D01*
X600000Y-7268628D02*
X600000Y-9622792D01*
%TO.N,/P10*%
X4750000Y-12750000D02*
X4250000Y-13250000D01*
X4750000Y-10727208D02*
X4750000Y-12750000D01*
X2184314Y-10000000D02*
X4022792Y-10000000D01*
X4022792Y-10000000D02*
X4750000Y-10727208D01*
X1000000Y-8815686D02*
X2184314Y-10000000D01*
X1000000Y-7434314D02*
X1000000Y-8815686D01*
X3684314Y-4750000D02*
X1000000Y-7434314D01*
X10000000Y-4750000D02*
X3684314Y-4750000D01*
X11000000Y-5750000D02*
X10000000Y-4750000D01*
%TO.N,/P05*%
X12322792Y-10100000D02*
X12900000Y-10677208D01*
X11100000Y-10100000D02*
X12322792Y-10100000D01*
X7125000Y-6125000D02*
X11100000Y-10100000D01*
X12900000Y-10677208D02*
X12900000Y-12764215D01*
X12900000Y-12764215D02*
X11664215Y-14000000D01*
X11664215Y-14000000D02*
X10250000Y-14000000D01*
%TO.N,/P07*%
X13300000Y-12929900D02*
X11229900Y-15000000D01*
X11748478Y-8960000D02*
X13300000Y-10511522D01*
X11229900Y-15000000D02*
X9250000Y-15000000D01*
X10960000Y-8960000D02*
X11748478Y-8960000D01*
X13300000Y-10511522D02*
X13300000Y-12929900D01*
X8125000Y-6125000D02*
X10960000Y-8960000D01*
%TO.N,/P05*%
X10250000Y-16795000D02*
X10045000Y-17000000D01*
%TO.N,/P03*%
X10151471Y-13250000D02*
X7505000Y-15896471D01*
X7505000Y-15896471D02*
X7505000Y-17000000D01*
X11000000Y-13250000D02*
X10151471Y-13250000D01*
%TO.N,/P02*%
X9465000Y-12500000D02*
X4965000Y-17000000D01*
X11750000Y-12500000D02*
X9465000Y-12500000D01*
%TD*%
%TA.AperFunction,Conductor*%
%TO.N,/GND*%
G36*
X705703Y-10578176D02*
G01*
X712181Y-10584208D01*
X2672192Y-12544220D01*
X2705677Y-12605543D01*
X2707731Y-12618017D01*
X2714630Y-12679249D01*
X2774210Y-12849521D01*
X2786271Y-12868716D01*
X2870184Y-13002262D01*
X2997738Y-13129816D01*
X3150478Y-13225789D01*
X3320745Y-13285368D01*
X3351795Y-13288866D01*
X3416207Y-13315930D01*
X3455763Y-13373524D01*
X3461132Y-13398201D01*
X3464630Y-13429249D01*
X3524210Y-13599521D01*
X3524211Y-13599522D01*
X3620184Y-13752262D01*
X3747738Y-13879816D01*
X3900478Y-13975789D01*
X4070745Y-14035368D01*
X4101795Y-14038866D01*
X4166207Y-14065930D01*
X4205763Y-14123524D01*
X4211132Y-14148201D01*
X4214630Y-14179249D01*
X4274210Y-14349521D01*
X4370184Y-14502262D01*
X4497738Y-14629816D01*
X4650478Y-14725789D01*
X4820745Y-14785368D01*
X4820750Y-14785369D01*
X4999996Y-14805565D01*
X5000000Y-14805565D01*
X5000004Y-14805565D01*
X5179249Y-14785369D01*
X5179252Y-14785368D01*
X5179255Y-14785368D01*
X5349522Y-14725789D01*
X5502262Y-14629816D01*
X5629816Y-14502262D01*
X5725789Y-14349522D01*
X5785368Y-14179255D01*
X5788867Y-14148201D01*
X5805565Y-14000003D01*
X5805565Y-13999996D01*
X5785368Y-13820747D01*
X5785368Y-13820745D01*
X5757458Y-13740982D01*
X5750500Y-13700028D01*
X5750500Y-11399097D01*
X5770185Y-11332058D01*
X5822989Y-11286303D01*
X5892147Y-11276359D01*
X5955703Y-11305384D01*
X5962181Y-11311416D01*
X7515139Y-12864374D01*
X7515149Y-12864385D01*
X7519479Y-12868715D01*
X7519480Y-12868716D01*
X7631284Y-12980520D01*
X7631286Y-12980521D01*
X7631290Y-12980524D01*
X7768209Y-13059573D01*
X7768216Y-13059577D01*
X7787874Y-13064844D01*
X7847535Y-13101207D01*
X7878066Y-13164054D01*
X7869772Y-13233429D01*
X7843464Y-13272300D01*
X5253691Y-15862072D01*
X5192368Y-15895557D01*
X5155203Y-15897919D01*
X5000002Y-15884341D01*
X4999999Y-15884341D01*
X4764596Y-15904936D01*
X4764586Y-15904938D01*
X4536344Y-15966094D01*
X4536335Y-15966098D01*
X4322171Y-16065964D01*
X4322169Y-16065965D01*
X4128600Y-16201503D01*
X4006284Y-16323819D01*
X3944961Y-16357303D01*
X3875269Y-16352319D01*
X3819336Y-16310447D01*
X3802421Y-16279470D01*
X3753354Y-16147913D01*
X3753350Y-16147906D01*
X3667190Y-16032812D01*
X3667187Y-16032809D01*
X3552093Y-15946649D01*
X3552086Y-15946645D01*
X3417379Y-15896403D01*
X3417372Y-15896401D01*
X3357844Y-15890000D01*
X2710000Y-15890000D01*
X2710000Y-16806988D01*
X2652993Y-16774075D01*
X2525826Y-16740000D01*
X2394174Y-16740000D01*
X2267007Y-16774075D01*
X2210000Y-16806988D01*
X2210000Y-15890000D01*
X1562155Y-15890000D01*
X1502627Y-15896401D01*
X1502620Y-15896403D01*
X1367913Y-15946645D01*
X1367906Y-15946649D01*
X1252812Y-16032809D01*
X1252809Y-16032812D01*
X1166649Y-16147906D01*
X1166645Y-16147913D01*
X1116403Y-16282620D01*
X1116401Y-16282627D01*
X1110000Y-16342155D01*
X1110000Y-16990000D01*
X2026988Y-16990000D01*
X1994075Y-17047007D01*
X1960000Y-17174174D01*
X1960000Y-17305826D01*
X1994075Y-17432993D01*
X2026988Y-17490000D01*
X1110000Y-17490000D01*
X1110000Y-18137844D01*
X1116401Y-18197372D01*
X1116403Y-18197379D01*
X1166676Y-18332167D01*
X1171660Y-18401858D01*
X1138175Y-18463181D01*
X1076852Y-18496666D01*
X1050494Y-18499500D01*
X624500Y-18499500D01*
X557461Y-18479815D01*
X511706Y-18427011D01*
X500500Y-18375500D01*
X500500Y-10671889D01*
X520185Y-10604850D01*
X572989Y-10559095D01*
X642147Y-10549151D01*
X705703Y-10578176D01*
G37*
%TD.AperFunction*%
%TA.AperFunction,Conductor*%
G36*
X1336936Y-520185D02*
G01*
X1382691Y-572989D01*
X1392635Y-642147D01*
X1363610Y-705703D01*
X1344208Y-723766D01*
X1252455Y-792452D01*
X1252452Y-792455D01*
X1166206Y-907664D01*
X1166202Y-907671D01*
X1115908Y-1042517D01*
X1109501Y-1102116D01*
X1109500Y-1102135D01*
X1109500Y-2897870D01*
X1109501Y-2897876D01*
X1115908Y-2957483D01*
X1166202Y-3092328D01*
X1166206Y-3092335D01*
X1252452Y-3207544D01*
X1252455Y-3207547D01*
X1367664Y-3293793D01*
X1367671Y-3293797D01*
X1502517Y-3344091D01*
X1502516Y-3344091D01*
X1509444Y-3344835D01*
X1562127Y-3350500D01*
X3357872Y-3350499D01*
X3417483Y-3344091D01*
X3552331Y-3293796D01*
X3667546Y-3207546D01*
X3753796Y-3092331D01*
X3802810Y-2960916D01*
X3844681Y-2904984D01*
X3910145Y-2880566D01*
X3978418Y-2895417D01*
X4006673Y-2916569D01*
X4128599Y-3038495D01*
X4225384Y-3106265D01*
X4322165Y-3174032D01*
X4322167Y-3174033D01*
X4322170Y-3174035D01*
X4536337Y-3273903D01*
X4764592Y-3335063D01*
X4941034Y-3350500D01*
X4999999Y-3355659D01*
X5000000Y-3355659D01*
X5000001Y-3355659D01*
X5058966Y-3350500D01*
X5235408Y-3335063D01*
X5463663Y-3273903D01*
X5677830Y-3174035D01*
X5871401Y-3038495D01*
X6038495Y-2871401D01*
X6168425Y-2685842D01*
X6223002Y-2642217D01*
X6292500Y-2635023D01*
X6354855Y-2666546D01*
X6371575Y-2685842D01*
X6501500Y-2871395D01*
X6501505Y-2871401D01*
X6668599Y-3038495D01*
X6765384Y-3106265D01*
X6862165Y-3174032D01*
X6862167Y-3174033D01*
X6862170Y-3174035D01*
X7076337Y-3273903D01*
X7304592Y-3335063D01*
X7481034Y-3350500D01*
X7539999Y-3355659D01*
X7540000Y-3355659D01*
X7540001Y-3355659D01*
X7598966Y-3350500D01*
X7775408Y-3335063D01*
X8003663Y-3273903D01*
X8217830Y-3174035D01*
X8411401Y-3038495D01*
X8578495Y-2871401D01*
X8708425Y-2685842D01*
X8763002Y-2642217D01*
X8832500Y-2635023D01*
X8894855Y-2666546D01*
X8911575Y-2685842D01*
X9041500Y-2871395D01*
X9041505Y-2871401D01*
X9208599Y-3038495D01*
X9305384Y-3106265D01*
X9402165Y-3174032D01*
X9402167Y-3174033D01*
X9402170Y-3174035D01*
X9616337Y-3273903D01*
X9844592Y-3335063D01*
X10021034Y-3350500D01*
X10079999Y-3355659D01*
X10080000Y-3355659D01*
X10080001Y-3355659D01*
X10138966Y-3350500D01*
X10315408Y-3335063D01*
X10543663Y-3273903D01*
X10757830Y-3174035D01*
X10951401Y-3038495D01*
X11118495Y-2871401D01*
X11248425Y-2685842D01*
X11303002Y-2642217D01*
X11372500Y-2635023D01*
X11434855Y-2666546D01*
X11451575Y-2685842D01*
X11581500Y-2871395D01*
X11581505Y-2871401D01*
X11748599Y-3038495D01*
X11845384Y-3106265D01*
X11942165Y-3174032D01*
X11942167Y-3174033D01*
X11942170Y-3174035D01*
X12156337Y-3273903D01*
X12384592Y-3335063D01*
X12561034Y-3350500D01*
X12619999Y-3355659D01*
X12620000Y-3355659D01*
X12620001Y-3355659D01*
X12678966Y-3350500D01*
X12855408Y-3335063D01*
X13083663Y-3273903D01*
X13297830Y-3174035D01*
X13491401Y-3038495D01*
X13658495Y-2871401D01*
X13794035Y-2677830D01*
X13893903Y-2463663D01*
X13955063Y-2235408D01*
X13975659Y-2000000D01*
X13955063Y-1764592D01*
X13893903Y-1536337D01*
X13794035Y-1322171D01*
X13788425Y-1314158D01*
X13658494Y-1128597D01*
X13491402Y-961506D01*
X13491395Y-961501D01*
X13297834Y-825967D01*
X13297830Y-825965D01*
X13225968Y-792455D01*
X13106790Y-736881D01*
X13054352Y-690710D01*
X13035200Y-623516D01*
X13055416Y-556635D01*
X13108581Y-511300D01*
X13159196Y-500500D01*
X14375500Y-500500D01*
X14442539Y-520185D01*
X14488294Y-572989D01*
X14499500Y-624500D01*
X14499500Y-18375500D01*
X14479815Y-18442539D01*
X14427011Y-18488294D01*
X14375500Y-18499500D01*
X13568705Y-18499500D01*
X13501666Y-18479815D01*
X13455911Y-18427011D01*
X13445967Y-18357853D01*
X13474992Y-18294297D01*
X13488993Y-18280516D01*
X13491396Y-18278498D01*
X13491401Y-18278495D01*
X13658495Y-18111401D01*
X13794035Y-17917830D01*
X13893903Y-17703663D01*
X13955063Y-17475408D01*
X13975659Y-17240000D01*
X13955063Y-17004592D01*
X13893903Y-16776337D01*
X13794035Y-16562171D01*
X13788425Y-16554158D01*
X13658494Y-16368597D01*
X13491402Y-16201506D01*
X13491395Y-16201501D01*
X13297834Y-16065967D01*
X13297830Y-16065965D01*
X13275263Y-16055442D01*
X13083663Y-15966097D01*
X13083659Y-15966096D01*
X13083655Y-15966094D01*
X12855413Y-15904938D01*
X12855403Y-15904936D01*
X12620001Y-15884341D01*
X12619999Y-15884341D01*
X12384596Y-15904936D01*
X12384586Y-15904938D01*
X12156344Y-15966094D01*
X12156335Y-15966098D01*
X11942171Y-16065964D01*
X11942169Y-16065965D01*
X11748597Y-16201505D01*
X11581505Y-16368597D01*
X11451575Y-16554158D01*
X11396998Y-16597783D01*
X11327500Y-16604977D01*
X11265145Y-16573454D01*
X11248425Y-16554158D01*
X11118494Y-16368597D01*
X10951402Y-16201506D01*
X10951395Y-16201501D01*
X10757834Y-16065967D01*
X10757830Y-16065965D01*
X10735263Y-16055442D01*
X10543663Y-15966097D01*
X10543659Y-15966096D01*
X10543655Y-15966094D01*
X10315413Y-15904938D01*
X10315403Y-15904936D01*
X10080001Y-15884341D01*
X10079999Y-15884341D01*
X9844596Y-15904936D01*
X9844583Y-15904939D01*
X9714878Y-15939692D01*
X9645028Y-15938029D01*
X9587166Y-15898866D01*
X9559663Y-15834637D01*
X9571250Y-15765735D01*
X9616812Y-15714924D01*
X9752262Y-15629816D01*
X9752267Y-15629810D01*
X9755097Y-15627555D01*
X9757275Y-15626665D01*
X9758158Y-15626111D01*
X9758255Y-15626265D01*
X9819783Y-15601145D01*
X9832412Y-15600500D01*
X11143231Y-15600500D01*
X11143247Y-15600501D01*
X11150843Y-15600501D01*
X11308954Y-15600501D01*
X11308957Y-15600501D01*
X11461685Y-15559577D01*
X11516802Y-15527755D01*
X11598616Y-15480520D01*
X11710420Y-15368716D01*
X11710420Y-15368714D01*
X11720624Y-15358511D01*
X11720628Y-15358506D01*
X13658506Y-13420628D01*
X13658511Y-13420624D01*
X13668714Y-13410420D01*
X13668716Y-13410420D01*
X13780520Y-13298616D01*
X13859577Y-13161684D01*
X13898018Y-13018220D01*
X13898019Y-13018218D01*
X13900500Y-13008959D01*
X13900500Y-10432467D01*
X13900500Y-10432465D01*
X13859577Y-10279738D01*
X13801564Y-10179255D01*
X13780524Y-10142812D01*
X13780521Y-10142808D01*
X13780520Y-10142806D01*
X13668716Y-10031002D01*
X13668715Y-10031001D01*
X13664385Y-10026671D01*
X13664374Y-10026661D01*
X12689355Y-9051642D01*
X12655870Y-8990319D01*
X12660854Y-8920627D01*
X12689354Y-8876280D01*
X12785734Y-8779899D01*
X12847057Y-8746414D01*
X12905506Y-8747804D01*
X13027525Y-8780500D01*
X13027528Y-8780500D01*
X13172472Y-8780500D01*
X13172475Y-8780500D01*
X13312485Y-8742984D01*
X13438015Y-8670509D01*
X13540509Y-8568015D01*
X13612984Y-8442485D01*
X13650500Y-8302475D01*
X13650500Y-8157525D01*
X13612984Y-8017515D01*
X13565888Y-7935943D01*
X13540511Y-7891988D01*
X13540506Y-7891982D01*
X13438017Y-7789493D01*
X13438011Y-7789488D01*
X13312488Y-7717017D01*
X13312489Y-7717017D01*
X13301006Y-7713940D01*
X13172475Y-7679500D01*
X13066672Y-7679500D01*
X12999633Y-7659815D01*
X12956187Y-7611795D01*
X12890804Y-7483475D01*
X12789032Y-7343397D01*
X12666602Y-7220967D01*
X12526524Y-7119195D01*
X12480614Y-7095803D01*
X12429818Y-7047828D01*
X12413023Y-6980007D01*
X12431916Y-6919345D01*
X12475788Y-6849524D01*
X12508928Y-6754816D01*
X12535368Y-6679255D01*
X12541226Y-6627262D01*
X12555565Y-6500003D01*
X12555565Y-6499996D01*
X12535369Y-6320750D01*
X12535368Y-6320745D01*
X12529596Y-6304249D01*
X12475789Y-6150478D01*
X12379816Y-5997738D01*
X12379814Y-5997736D01*
X12379813Y-5997734D01*
X12377550Y-5994896D01*
X12376659Y-5992715D01*
X12376111Y-5991842D01*
X12376264Y-5991745D01*
X12351144Y-5930209D01*
X12350500Y-5917587D01*
X12350500Y-5740530D01*
X12350501Y-5740517D01*
X12350501Y-5572416D01*
X12350501Y-5572414D01*
X12309577Y-5419686D01*
X12269632Y-5350500D01*
X12269632Y-5350499D01*
X12230522Y-5282758D01*
X12230521Y-5282757D01*
X12230520Y-5282755D01*
X12118716Y-5170951D01*
X12118715Y-5170950D01*
X12114385Y-5166620D01*
X12114374Y-5166610D01*
X10936119Y-3988355D01*
X10936117Y-3988352D01*
X10817246Y-3869481D01*
X10817245Y-3869480D01*
X10730433Y-3819360D01*
X10730433Y-3819359D01*
X10730429Y-3819358D01*
X10680314Y-3790423D01*
X10527586Y-3749499D01*
X10369472Y-3749499D01*
X10361876Y-3749499D01*
X10361860Y-3749500D01*
X3597685Y-3749500D01*
X3439570Y-3749500D01*
X3286843Y-3790423D01*
X3286842Y-3790423D01*
X3286840Y-3790424D01*
X3286837Y-3790425D01*
X3236724Y-3819359D01*
X3236723Y-3819360D01*
X3193317Y-3844420D01*
X3149913Y-3869479D01*
X3149910Y-3869481D01*
X3038106Y-3981286D01*
X712180Y-6307211D01*
X650857Y-6340696D01*
X581165Y-6335712D01*
X525232Y-6293840D01*
X500815Y-6228376D01*
X500499Y-6219530D01*
X500500Y-624500D01*
X520185Y-557461D01*
X572989Y-511706D01*
X624500Y-500500D01*
X1269897Y-500500D01*
X1336936Y-520185D01*
G37*
%TD.AperFunction*%
%TD*%
M02*
