M48
; DRILL file {KiCad 8.0.7} date 2025-05-14T16:02:46-0500
; FORMAT={-:-/ absolute / inch / decimal}
; #@! TF.CreationDate,2025-05-14T16:02:46-05:00
; #@! TF.GenerationSoftware,Kicad,Pcbnew,8.0.7
; #@! TF.FileFunction,Plated,1,2,PTH
FMAT,2
INCH
; #@! TA.AperFunction,Plated,PTH,ViaDrill
T1C0.0118
; #@! TA.AperFunction,Plated,PTH,ComponentDrill
T2C0.0315
; #@! TA.AperFunction,Plated,PTH,ComponentDrill
T3C0.0394
%
G90
G05
T1
X0.0492Y-0.1772
X0.0492Y-0.5807
X0.1378Y-0.2559
X0.1378Y-0.4921
X0.1673Y-0.2264
X0.1673Y-0.5217
X0.1969Y-0.5512
X0.2756Y-0.3937
X0.2805Y-0.2411
X0.315Y-0.3543
X0.3199Y-0.2411
X0.3593Y-0.2411
X0.3642Y-0.5906
X0.4035Y-0.5512
X0.4331Y-0.2264
X0.4331Y-0.5217
X0.4626Y-0.2559
X0.4626Y-0.4921
X0.5413Y-0.1772
X0.5413Y-0.5807
T3
X0.0969Y-0.0787
X0.0969Y-0.6787
X0.1969Y-0.0787
X0.1969Y-0.6787
X0.2969Y-0.0787
X0.2969Y-0.6787
X0.3969Y-0.0787
X0.3969Y-0.6787
X0.4969Y-0.0787
X0.4969Y-0.6787
T2
G00X0.128Y-0.3173
M15
G01X0.1476Y-0.3173
M16
G05
G00X0.128Y-0.4331
M15
G01X0.1476Y-0.4331
M16
G05
G00X0.4508Y-0.3173
M15
G01X0.4705Y-0.3173
M16
G05
G00X0.4508Y-0.4331
M15
G01X0.4705Y-0.4331
M16
G05
M30
