%TF.GenerationSoftware,KiCad,Pcbnew,9.0.2*%
%TF.CreationDate,2025-05-12T22:41:21-05:00*%
%TF.ProjectId,excelsior,65786365-6c73-4696-9f72-2e6b69636164,rev?*%
%TF.SameCoordinates,Original*%
%TF.FileFunction,Legend,Bot*%
%TF.FilePolarity,Positive*%
%FSLAX46Y46*%
G04 Gerber Fmt 4.6, Leading zero omitted, Abs format (unit mm)*
G04 Created by KiCad (PCBNEW 9.0.2) date 2025-05-12 22:41:21*
%MOMM*%
%LPD*%
G01*
G04 APERTURE LIST*
%ADD10C,0.150000*%
%ADD11C,0.381000*%
%ADD12C,1.752600*%
%ADD13R,1.752600X1.752600*%
G04 APERTURE END LIST*
D10*
X132611495Y-27583505D02*
X132230542Y-27316838D01*
X132611495Y-27126362D02*
X131811495Y-27126362D01*
X131811495Y-27126362D02*
X131811495Y-27431124D01*
X131811495Y-27431124D02*
X131849590Y-27507314D01*
X131849590Y-27507314D02*
X131887685Y-27545409D01*
X131887685Y-27545409D02*
X131963876Y-27583505D01*
X131963876Y-27583505D02*
X132078161Y-27583505D01*
X132078161Y-27583505D02*
X132154352Y-27545409D01*
X132154352Y-27545409D02*
X132192447Y-27507314D01*
X132192447Y-27507314D02*
X132230542Y-27431124D01*
X132230542Y-27431124D02*
X132230542Y-27126362D01*
X132573400Y-27888266D02*
X132611495Y-28002552D01*
X132611495Y-28002552D02*
X132611495Y-28193028D01*
X132611495Y-28193028D02*
X132573400Y-28269219D01*
X132573400Y-28269219D02*
X132535304Y-28307314D01*
X132535304Y-28307314D02*
X132459114Y-28345409D01*
X132459114Y-28345409D02*
X132382923Y-28345409D01*
X132382923Y-28345409D02*
X132306733Y-28307314D01*
X132306733Y-28307314D02*
X132268638Y-28269219D01*
X132268638Y-28269219D02*
X132230542Y-28193028D01*
X132230542Y-28193028D02*
X132192447Y-28040647D01*
X132192447Y-28040647D02*
X132154352Y-27964457D01*
X132154352Y-27964457D02*
X132116257Y-27926362D01*
X132116257Y-27926362D02*
X132040066Y-27888266D01*
X132040066Y-27888266D02*
X131963876Y-27888266D01*
X131963876Y-27888266D02*
X131887685Y-27926362D01*
X131887685Y-27926362D02*
X131849590Y-27964457D01*
X131849590Y-27964457D02*
X131811495Y-28040647D01*
X131811495Y-28040647D02*
X131811495Y-28231124D01*
X131811495Y-28231124D02*
X131849590Y-28345409D01*
X131811495Y-28573981D02*
X131811495Y-29031124D01*
X132611495Y-28802552D02*
X131811495Y-28802552D01*
X152906095Y-26751905D02*
X152106095Y-26751905D01*
X152106095Y-26751905D02*
X152677523Y-27018571D01*
X152677523Y-27018571D02*
X152106095Y-27285238D01*
X152106095Y-27285238D02*
X152906095Y-27285238D01*
X152106095Y-27818572D02*
X152106095Y-27970953D01*
X152106095Y-27970953D02*
X152144190Y-28047143D01*
X152144190Y-28047143D02*
X152220380Y-28123334D01*
X152220380Y-28123334D02*
X152372761Y-28161429D01*
X152372761Y-28161429D02*
X152639428Y-28161429D01*
X152639428Y-28161429D02*
X152791809Y-28123334D01*
X152791809Y-28123334D02*
X152868000Y-28047143D01*
X152868000Y-28047143D02*
X152906095Y-27970953D01*
X152906095Y-27970953D02*
X152906095Y-27818572D01*
X152906095Y-27818572D02*
X152868000Y-27742381D01*
X152868000Y-27742381D02*
X152791809Y-27666191D01*
X152791809Y-27666191D02*
X152639428Y-27628095D01*
X152639428Y-27628095D02*
X152372761Y-27628095D01*
X152372761Y-27628095D02*
X152220380Y-27666191D01*
X152220380Y-27666191D02*
X152144190Y-27742381D01*
X152144190Y-27742381D02*
X152106095Y-27818572D01*
X152868000Y-28466190D02*
X152906095Y-28580476D01*
X152906095Y-28580476D02*
X152906095Y-28770952D01*
X152906095Y-28770952D02*
X152868000Y-28847143D01*
X152868000Y-28847143D02*
X152829904Y-28885238D01*
X152829904Y-28885238D02*
X152753714Y-28923333D01*
X152753714Y-28923333D02*
X152677523Y-28923333D01*
X152677523Y-28923333D02*
X152601333Y-28885238D01*
X152601333Y-28885238D02*
X152563238Y-28847143D01*
X152563238Y-28847143D02*
X152525142Y-28770952D01*
X152525142Y-28770952D02*
X152487047Y-28618571D01*
X152487047Y-28618571D02*
X152448952Y-28542381D01*
X152448952Y-28542381D02*
X152410857Y-28504286D01*
X152410857Y-28504286D02*
X152334666Y-28466190D01*
X152334666Y-28466190D02*
X152258476Y-28466190D01*
X152258476Y-28466190D02*
X152182285Y-28504286D01*
X152182285Y-28504286D02*
X152144190Y-28542381D01*
X152144190Y-28542381D02*
X152106095Y-28618571D01*
X152106095Y-28618571D02*
X152106095Y-28809048D01*
X152106095Y-28809048D02*
X152144190Y-28923333D01*
X152906095Y-29266191D02*
X152106095Y-29266191D01*
X152068000Y-30218571D02*
X153096571Y-29532857D01*
X152906095Y-30904285D02*
X152906095Y-30447142D01*
X152906095Y-30675714D02*
X152106095Y-30675714D01*
X152106095Y-30675714D02*
X152220380Y-30599523D01*
X152220380Y-30599523D02*
X152296571Y-30523333D01*
X152296571Y-30523333D02*
X152334666Y-30447142D01*
X152906095Y-31285238D02*
X152906095Y-31437619D01*
X152906095Y-31437619D02*
X152868000Y-31513809D01*
X152868000Y-31513809D02*
X152829904Y-31551905D01*
X152829904Y-31551905D02*
X152715619Y-31628095D01*
X152715619Y-31628095D02*
X152563238Y-31666190D01*
X152563238Y-31666190D02*
X152258476Y-31666190D01*
X152258476Y-31666190D02*
X152182285Y-31628095D01*
X152182285Y-31628095D02*
X152144190Y-31590000D01*
X152144190Y-31590000D02*
X152106095Y-31513809D01*
X152106095Y-31513809D02*
X152106095Y-31361428D01*
X152106095Y-31361428D02*
X152144190Y-31285238D01*
X152144190Y-31285238D02*
X152182285Y-31247143D01*
X152182285Y-31247143D02*
X152258476Y-31209047D01*
X152258476Y-31209047D02*
X152448952Y-31209047D01*
X152448952Y-31209047D02*
X152525142Y-31247143D01*
X152525142Y-31247143D02*
X152563238Y-31285238D01*
X152563238Y-31285238D02*
X152601333Y-31361428D01*
X152601333Y-31361428D02*
X152601333Y-31513809D01*
X152601333Y-31513809D02*
X152563238Y-31590000D01*
X152563238Y-31590000D02*
X152525142Y-31628095D01*
X152525142Y-31628095D02*
X152448952Y-31666190D01*
X134351495Y-26840647D02*
X134351495Y-27335885D01*
X134351495Y-27335885D02*
X134656257Y-27069219D01*
X134656257Y-27069219D02*
X134656257Y-27183504D01*
X134656257Y-27183504D02*
X134694352Y-27259695D01*
X134694352Y-27259695D02*
X134732447Y-27297790D01*
X134732447Y-27297790D02*
X134808638Y-27335885D01*
X134808638Y-27335885D02*
X134999114Y-27335885D01*
X134999114Y-27335885D02*
X135075304Y-27297790D01*
X135075304Y-27297790D02*
X135113400Y-27259695D01*
X135113400Y-27259695D02*
X135151495Y-27183504D01*
X135151495Y-27183504D02*
X135151495Y-26954933D01*
X135151495Y-26954933D02*
X135113400Y-26878742D01*
X135113400Y-26878742D02*
X135075304Y-26840647D01*
X135075304Y-27678743D02*
X135113400Y-27716838D01*
X135113400Y-27716838D02*
X135151495Y-27678743D01*
X135151495Y-27678743D02*
X135113400Y-27640647D01*
X135113400Y-27640647D02*
X135075304Y-27678743D01*
X135075304Y-27678743D02*
X135151495Y-27678743D01*
X134351495Y-27983504D02*
X134351495Y-28478742D01*
X134351495Y-28478742D02*
X134656257Y-28212076D01*
X134656257Y-28212076D02*
X134656257Y-28326361D01*
X134656257Y-28326361D02*
X134694352Y-28402552D01*
X134694352Y-28402552D02*
X134732447Y-28440647D01*
X134732447Y-28440647D02*
X134808638Y-28478742D01*
X134808638Y-28478742D02*
X134999114Y-28478742D01*
X134999114Y-28478742D02*
X135075304Y-28440647D01*
X135075304Y-28440647D02*
X135113400Y-28402552D01*
X135113400Y-28402552D02*
X135151495Y-28326361D01*
X135151495Y-28326361D02*
X135151495Y-28097790D01*
X135151495Y-28097790D02*
X135113400Y-28021599D01*
X135113400Y-28021599D02*
X135075304Y-27983504D01*
X134351495Y-28707314D02*
X135151495Y-28973981D01*
X135151495Y-28973981D02*
X134351495Y-29240647D01*
X127582295Y-26986619D02*
X127201342Y-26719952D01*
X127582295Y-26529476D02*
X126782295Y-26529476D01*
X126782295Y-26529476D02*
X126782295Y-26834238D01*
X126782295Y-26834238D02*
X126820390Y-26910428D01*
X126820390Y-26910428D02*
X126858485Y-26948523D01*
X126858485Y-26948523D02*
X126934676Y-26986619D01*
X126934676Y-26986619D02*
X127048961Y-26986619D01*
X127048961Y-26986619D02*
X127125152Y-26948523D01*
X127125152Y-26948523D02*
X127163247Y-26910428D01*
X127163247Y-26910428D02*
X127201342Y-26834238D01*
X127201342Y-26834238D02*
X127201342Y-26529476D01*
X127353723Y-27291380D02*
X127353723Y-27672333D01*
X127582295Y-27215190D02*
X126782295Y-27481857D01*
X126782295Y-27481857D02*
X127582295Y-27748523D01*
X126782295Y-27938999D02*
X127582295Y-28129475D01*
X127582295Y-28129475D02*
X127010866Y-28281856D01*
X127010866Y-28281856D02*
X127582295Y-28434237D01*
X127582295Y-28434237D02*
X126782295Y-28624714D01*
X147902295Y-37870524D02*
X147102295Y-37870524D01*
X147102295Y-37870524D02*
X147102295Y-38061000D01*
X147102295Y-38061000D02*
X147140390Y-38175286D01*
X147140390Y-38175286D02*
X147216580Y-38251476D01*
X147216580Y-38251476D02*
X147292771Y-38289571D01*
X147292771Y-38289571D02*
X147445152Y-38327667D01*
X147445152Y-38327667D02*
X147559438Y-38327667D01*
X147559438Y-38327667D02*
X147711819Y-38289571D01*
X147711819Y-38289571D02*
X147788009Y-38251476D01*
X147788009Y-38251476D02*
X147864200Y-38175286D01*
X147864200Y-38175286D02*
X147902295Y-38061000D01*
X147902295Y-38061000D02*
X147902295Y-37870524D01*
X147102295Y-39013381D02*
X147102295Y-38861000D01*
X147102295Y-38861000D02*
X147140390Y-38784809D01*
X147140390Y-38784809D02*
X147178485Y-38746714D01*
X147178485Y-38746714D02*
X147292771Y-38670524D01*
X147292771Y-38670524D02*
X147445152Y-38632428D01*
X147445152Y-38632428D02*
X147749914Y-38632428D01*
X147749914Y-38632428D02*
X147826104Y-38670524D01*
X147826104Y-38670524D02*
X147864200Y-38708619D01*
X147864200Y-38708619D02*
X147902295Y-38784809D01*
X147902295Y-38784809D02*
X147902295Y-38937190D01*
X147902295Y-38937190D02*
X147864200Y-39013381D01*
X147864200Y-39013381D02*
X147826104Y-39051476D01*
X147826104Y-39051476D02*
X147749914Y-39089571D01*
X147749914Y-39089571D02*
X147559438Y-39089571D01*
X147559438Y-39089571D02*
X147483247Y-39051476D01*
X147483247Y-39051476D02*
X147445152Y-39013381D01*
X147445152Y-39013381D02*
X147407057Y-38937190D01*
X147407057Y-38937190D02*
X147407057Y-38784809D01*
X147407057Y-38784809D02*
X147445152Y-38708619D01*
X147445152Y-38708619D02*
X147483247Y-38670524D01*
X147483247Y-38670524D02*
X147559438Y-38632428D01*
X137437523Y-26777218D02*
X137437523Y-27158171D01*
X137666095Y-26701028D02*
X136866095Y-26967695D01*
X136866095Y-26967695D02*
X137666095Y-27234361D01*
X136866095Y-27424837D02*
X136866095Y-27920075D01*
X136866095Y-27920075D02*
X137170857Y-27653409D01*
X137170857Y-27653409D02*
X137170857Y-27767694D01*
X137170857Y-27767694D02*
X137208952Y-27843885D01*
X137208952Y-27843885D02*
X137247047Y-27881980D01*
X137247047Y-27881980D02*
X137323238Y-27920075D01*
X137323238Y-27920075D02*
X137513714Y-27920075D01*
X137513714Y-27920075D02*
X137589904Y-27881980D01*
X137589904Y-27881980D02*
X137628000Y-27843885D01*
X137628000Y-27843885D02*
X137666095Y-27767694D01*
X137666095Y-27767694D02*
X137666095Y-27539123D01*
X137666095Y-27539123D02*
X137628000Y-27462932D01*
X137628000Y-27462932D02*
X137589904Y-27424837D01*
X136828000Y-28834361D02*
X137856571Y-28148647D01*
X136942285Y-29062932D02*
X136904190Y-29101028D01*
X136904190Y-29101028D02*
X136866095Y-29177218D01*
X136866095Y-29177218D02*
X136866095Y-29367694D01*
X136866095Y-29367694D02*
X136904190Y-29443885D01*
X136904190Y-29443885D02*
X136942285Y-29481980D01*
X136942285Y-29481980D02*
X137018476Y-29520075D01*
X137018476Y-29520075D02*
X137094666Y-29520075D01*
X137094666Y-29520075D02*
X137208952Y-29481980D01*
X137208952Y-29481980D02*
X137666095Y-29024837D01*
X137666095Y-29024837D02*
X137666095Y-29520075D01*
X137666095Y-29901028D02*
X137666095Y-30053409D01*
X137666095Y-30053409D02*
X137628000Y-30129599D01*
X137628000Y-30129599D02*
X137589904Y-30167695D01*
X137589904Y-30167695D02*
X137475619Y-30243885D01*
X137475619Y-30243885D02*
X137323238Y-30281980D01*
X137323238Y-30281980D02*
X137018476Y-30281980D01*
X137018476Y-30281980D02*
X136942285Y-30243885D01*
X136942285Y-30243885D02*
X136904190Y-30205790D01*
X136904190Y-30205790D02*
X136866095Y-30129599D01*
X136866095Y-30129599D02*
X136866095Y-29977218D01*
X136866095Y-29977218D02*
X136904190Y-29901028D01*
X136904190Y-29901028D02*
X136942285Y-29862933D01*
X136942285Y-29862933D02*
X137018476Y-29824837D01*
X137018476Y-29824837D02*
X137208952Y-29824837D01*
X137208952Y-29824837D02*
X137285142Y-29862933D01*
X137285142Y-29862933D02*
X137323238Y-29901028D01*
X137323238Y-29901028D02*
X137361333Y-29977218D01*
X137361333Y-29977218D02*
X137361333Y-30129599D01*
X137361333Y-30129599D02*
X137323238Y-30205790D01*
X137323238Y-30205790D02*
X137285142Y-30243885D01*
X137285142Y-30243885D02*
X137208952Y-30281980D01*
X145057523Y-26777218D02*
X145057523Y-27158171D01*
X145286095Y-26701028D02*
X144486095Y-26967695D01*
X144486095Y-26967695D02*
X145286095Y-27234361D01*
X144486095Y-27653409D02*
X144486095Y-27729599D01*
X144486095Y-27729599D02*
X144524190Y-27805790D01*
X144524190Y-27805790D02*
X144562285Y-27843885D01*
X144562285Y-27843885D02*
X144638476Y-27881980D01*
X144638476Y-27881980D02*
X144790857Y-27920075D01*
X144790857Y-27920075D02*
X144981333Y-27920075D01*
X144981333Y-27920075D02*
X145133714Y-27881980D01*
X145133714Y-27881980D02*
X145209904Y-27843885D01*
X145209904Y-27843885D02*
X145248000Y-27805790D01*
X145248000Y-27805790D02*
X145286095Y-27729599D01*
X145286095Y-27729599D02*
X145286095Y-27653409D01*
X145286095Y-27653409D02*
X145248000Y-27577218D01*
X145248000Y-27577218D02*
X145209904Y-27539123D01*
X145209904Y-27539123D02*
X145133714Y-27501028D01*
X145133714Y-27501028D02*
X144981333Y-27462932D01*
X144981333Y-27462932D02*
X144790857Y-27462932D01*
X144790857Y-27462932D02*
X144638476Y-27501028D01*
X144638476Y-27501028D02*
X144562285Y-27539123D01*
X144562285Y-27539123D02*
X144524190Y-27577218D01*
X144524190Y-27577218D02*
X144486095Y-27653409D01*
X144448000Y-28834361D02*
X145476571Y-28148647D01*
X144562285Y-29062932D02*
X144524190Y-29101028D01*
X144524190Y-29101028D02*
X144486095Y-29177218D01*
X144486095Y-29177218D02*
X144486095Y-29367694D01*
X144486095Y-29367694D02*
X144524190Y-29443885D01*
X144524190Y-29443885D02*
X144562285Y-29481980D01*
X144562285Y-29481980D02*
X144638476Y-29520075D01*
X144638476Y-29520075D02*
X144714666Y-29520075D01*
X144714666Y-29520075D02*
X144828952Y-29481980D01*
X144828952Y-29481980D02*
X145286095Y-29024837D01*
X145286095Y-29024837D02*
X145286095Y-29520075D01*
X144486095Y-30205790D02*
X144486095Y-30053409D01*
X144486095Y-30053409D02*
X144524190Y-29977218D01*
X144524190Y-29977218D02*
X144562285Y-29939123D01*
X144562285Y-29939123D02*
X144676571Y-29862933D01*
X144676571Y-29862933D02*
X144828952Y-29824837D01*
X144828952Y-29824837D02*
X145133714Y-29824837D01*
X145133714Y-29824837D02*
X145209904Y-29862933D01*
X145209904Y-29862933D02*
X145248000Y-29901028D01*
X145248000Y-29901028D02*
X145286095Y-29977218D01*
X145286095Y-29977218D02*
X145286095Y-30129599D01*
X145286095Y-30129599D02*
X145248000Y-30205790D01*
X145248000Y-30205790D02*
X145209904Y-30243885D01*
X145209904Y-30243885D02*
X145133714Y-30281980D01*
X145133714Y-30281980D02*
X144943238Y-30281980D01*
X144943238Y-30281980D02*
X144867047Y-30243885D01*
X144867047Y-30243885D02*
X144828952Y-30205790D01*
X144828952Y-30205790D02*
X144790857Y-30129599D01*
X144790857Y-30129599D02*
X144790857Y-29977218D01*
X144790857Y-29977218D02*
X144828952Y-29901028D01*
X144828952Y-29901028D02*
X144867047Y-29862933D01*
X144867047Y-29862933D02*
X144943238Y-29824837D01*
X130122295Y-37870524D02*
X129322295Y-37870524D01*
X129322295Y-37870524D02*
X129322295Y-38061000D01*
X129322295Y-38061000D02*
X129360390Y-38175286D01*
X129360390Y-38175286D02*
X129436580Y-38251476D01*
X129436580Y-38251476D02*
X129512771Y-38289571D01*
X129512771Y-38289571D02*
X129665152Y-38327667D01*
X129665152Y-38327667D02*
X129779438Y-38327667D01*
X129779438Y-38327667D02*
X129931819Y-38289571D01*
X129931819Y-38289571D02*
X130008009Y-38251476D01*
X130008009Y-38251476D02*
X130084200Y-38175286D01*
X130084200Y-38175286D02*
X130122295Y-38061000D01*
X130122295Y-38061000D02*
X130122295Y-37870524D01*
X130122295Y-39089571D02*
X130122295Y-38632428D01*
X130122295Y-38861000D02*
X129322295Y-38861000D01*
X129322295Y-38861000D02*
X129436580Y-38784809D01*
X129436580Y-38784809D02*
X129512771Y-38708619D01*
X129512771Y-38708619D02*
X129550866Y-38632428D01*
X125042295Y-37375238D02*
X124242295Y-37375238D01*
X124242295Y-37375238D02*
X124242295Y-37565714D01*
X124242295Y-37565714D02*
X124280390Y-37680000D01*
X124280390Y-37680000D02*
X124356580Y-37756190D01*
X124356580Y-37756190D02*
X124432771Y-37794285D01*
X124432771Y-37794285D02*
X124585152Y-37832381D01*
X124585152Y-37832381D02*
X124699438Y-37832381D01*
X124699438Y-37832381D02*
X124851819Y-37794285D01*
X124851819Y-37794285D02*
X124928009Y-37756190D01*
X124928009Y-37756190D02*
X125004200Y-37680000D01*
X125004200Y-37680000D02*
X125042295Y-37565714D01*
X125042295Y-37565714D02*
X125042295Y-37375238D01*
X124737533Y-38175238D02*
X124737533Y-38784762D01*
X125042295Y-38480000D02*
X124432771Y-38480000D01*
X145362295Y-37870524D02*
X144562295Y-37870524D01*
X144562295Y-37870524D02*
X144562295Y-38061000D01*
X144562295Y-38061000D02*
X144600390Y-38175286D01*
X144600390Y-38175286D02*
X144676580Y-38251476D01*
X144676580Y-38251476D02*
X144752771Y-38289571D01*
X144752771Y-38289571D02*
X144905152Y-38327667D01*
X144905152Y-38327667D02*
X145019438Y-38327667D01*
X145019438Y-38327667D02*
X145171819Y-38289571D01*
X145171819Y-38289571D02*
X145248009Y-38251476D01*
X145248009Y-38251476D02*
X145324200Y-38175286D01*
X145324200Y-38175286D02*
X145362295Y-38061000D01*
X145362295Y-38061000D02*
X145362295Y-37870524D01*
X144562295Y-39051476D02*
X144562295Y-38670524D01*
X144562295Y-38670524D02*
X144943247Y-38632428D01*
X144943247Y-38632428D02*
X144905152Y-38670524D01*
X144905152Y-38670524D02*
X144867057Y-38746714D01*
X144867057Y-38746714D02*
X144867057Y-38937190D01*
X144867057Y-38937190D02*
X144905152Y-39013381D01*
X144905152Y-39013381D02*
X144943247Y-39051476D01*
X144943247Y-39051476D02*
X145019438Y-39089571D01*
X145019438Y-39089571D02*
X145209914Y-39089571D01*
X145209914Y-39089571D02*
X145286104Y-39051476D01*
X145286104Y-39051476D02*
X145324200Y-39013381D01*
X145324200Y-39013381D02*
X145362295Y-38937190D01*
X145362295Y-38937190D02*
X145362295Y-38746714D01*
X145362295Y-38746714D02*
X145324200Y-38670524D01*
X145324200Y-38670524D02*
X145286104Y-38632428D01*
X137742295Y-37870524D02*
X136942295Y-37870524D01*
X136942295Y-37870524D02*
X136942295Y-38061000D01*
X136942295Y-38061000D02*
X136980390Y-38175286D01*
X136980390Y-38175286D02*
X137056580Y-38251476D01*
X137056580Y-38251476D02*
X137132771Y-38289571D01*
X137132771Y-38289571D02*
X137285152Y-38327667D01*
X137285152Y-38327667D02*
X137399438Y-38327667D01*
X137399438Y-38327667D02*
X137551819Y-38289571D01*
X137551819Y-38289571D02*
X137628009Y-38251476D01*
X137628009Y-38251476D02*
X137704200Y-38175286D01*
X137704200Y-38175286D02*
X137742295Y-38061000D01*
X137742295Y-38061000D02*
X137742295Y-37870524D01*
X137018485Y-38632428D02*
X136980390Y-38670524D01*
X136980390Y-38670524D02*
X136942295Y-38746714D01*
X136942295Y-38746714D02*
X136942295Y-38937190D01*
X136942295Y-38937190D02*
X136980390Y-39013381D01*
X136980390Y-39013381D02*
X137018485Y-39051476D01*
X137018485Y-39051476D02*
X137094676Y-39089571D01*
X137094676Y-39089571D02*
X137170866Y-39089571D01*
X137170866Y-39089571D02*
X137285152Y-39051476D01*
X137285152Y-39051476D02*
X137742295Y-38594333D01*
X137742295Y-38594333D02*
X137742295Y-39089571D01*
X131824190Y-37648276D02*
X131786095Y-37572086D01*
X131786095Y-37572086D02*
X131786095Y-37457800D01*
X131786095Y-37457800D02*
X131824190Y-37343514D01*
X131824190Y-37343514D02*
X131900380Y-37267324D01*
X131900380Y-37267324D02*
X131976571Y-37229229D01*
X131976571Y-37229229D02*
X132128952Y-37191133D01*
X132128952Y-37191133D02*
X132243238Y-37191133D01*
X132243238Y-37191133D02*
X132395619Y-37229229D01*
X132395619Y-37229229D02*
X132471809Y-37267324D01*
X132471809Y-37267324D02*
X132548000Y-37343514D01*
X132548000Y-37343514D02*
X132586095Y-37457800D01*
X132586095Y-37457800D02*
X132586095Y-37533991D01*
X132586095Y-37533991D02*
X132548000Y-37648276D01*
X132548000Y-37648276D02*
X132509904Y-37686372D01*
X132509904Y-37686372D02*
X132243238Y-37686372D01*
X132243238Y-37686372D02*
X132243238Y-37533991D01*
X132586095Y-38029229D02*
X131786095Y-38029229D01*
X131786095Y-38029229D02*
X132586095Y-38486372D01*
X132586095Y-38486372D02*
X131786095Y-38486372D01*
X132586095Y-38867324D02*
X131786095Y-38867324D01*
X131786095Y-38867324D02*
X131786095Y-39057800D01*
X131786095Y-39057800D02*
X131824190Y-39172086D01*
X131824190Y-39172086D02*
X131900380Y-39248276D01*
X131900380Y-39248276D02*
X131976571Y-39286371D01*
X131976571Y-39286371D02*
X132128952Y-39324467D01*
X132128952Y-39324467D02*
X132243238Y-39324467D01*
X132243238Y-39324467D02*
X132395619Y-39286371D01*
X132395619Y-39286371D02*
X132471809Y-39248276D01*
X132471809Y-39248276D02*
X132548000Y-39172086D01*
X132548000Y-39172086D02*
X132586095Y-39057800D01*
X132586095Y-39057800D02*
X132586095Y-38867324D01*
X150366095Y-26751905D02*
X149566095Y-26751905D01*
X149566095Y-26751905D02*
X150137523Y-27018571D01*
X150137523Y-27018571D02*
X149566095Y-27285238D01*
X149566095Y-27285238D02*
X150366095Y-27285238D01*
X150366095Y-27666191D02*
X149566095Y-27666191D01*
X150328000Y-28009047D02*
X150366095Y-28123333D01*
X150366095Y-28123333D02*
X150366095Y-28313809D01*
X150366095Y-28313809D02*
X150328000Y-28390000D01*
X150328000Y-28390000D02*
X150289904Y-28428095D01*
X150289904Y-28428095D02*
X150213714Y-28466190D01*
X150213714Y-28466190D02*
X150137523Y-28466190D01*
X150137523Y-28466190D02*
X150061333Y-28428095D01*
X150061333Y-28428095D02*
X150023238Y-28390000D01*
X150023238Y-28390000D02*
X149985142Y-28313809D01*
X149985142Y-28313809D02*
X149947047Y-28161428D01*
X149947047Y-28161428D02*
X149908952Y-28085238D01*
X149908952Y-28085238D02*
X149870857Y-28047143D01*
X149870857Y-28047143D02*
X149794666Y-28009047D01*
X149794666Y-28009047D02*
X149718476Y-28009047D01*
X149718476Y-28009047D02*
X149642285Y-28047143D01*
X149642285Y-28047143D02*
X149604190Y-28085238D01*
X149604190Y-28085238D02*
X149566095Y-28161428D01*
X149566095Y-28161428D02*
X149566095Y-28351905D01*
X149566095Y-28351905D02*
X149604190Y-28466190D01*
X149566095Y-28961429D02*
X149566095Y-29113810D01*
X149566095Y-29113810D02*
X149604190Y-29190000D01*
X149604190Y-29190000D02*
X149680380Y-29266191D01*
X149680380Y-29266191D02*
X149832761Y-29304286D01*
X149832761Y-29304286D02*
X150099428Y-29304286D01*
X150099428Y-29304286D02*
X150251809Y-29266191D01*
X150251809Y-29266191D02*
X150328000Y-29190000D01*
X150328000Y-29190000D02*
X150366095Y-29113810D01*
X150366095Y-29113810D02*
X150366095Y-28961429D01*
X150366095Y-28961429D02*
X150328000Y-28885238D01*
X150328000Y-28885238D02*
X150251809Y-28809048D01*
X150251809Y-28809048D02*
X150099428Y-28770952D01*
X150099428Y-28770952D02*
X149832761Y-28770952D01*
X149832761Y-28770952D02*
X149680380Y-28809048D01*
X149680380Y-28809048D02*
X149604190Y-28885238D01*
X149604190Y-28885238D02*
X149566095Y-28961429D01*
X149528000Y-30218571D02*
X150556571Y-29532857D01*
X149642285Y-30447142D02*
X149604190Y-30485238D01*
X149604190Y-30485238D02*
X149566095Y-30561428D01*
X149566095Y-30561428D02*
X149566095Y-30751904D01*
X149566095Y-30751904D02*
X149604190Y-30828095D01*
X149604190Y-30828095D02*
X149642285Y-30866190D01*
X149642285Y-30866190D02*
X149718476Y-30904285D01*
X149718476Y-30904285D02*
X149794666Y-30904285D01*
X149794666Y-30904285D02*
X149908952Y-30866190D01*
X149908952Y-30866190D02*
X150366095Y-30409047D01*
X150366095Y-30409047D02*
X150366095Y-30904285D01*
X149566095Y-31399524D02*
X149566095Y-31475714D01*
X149566095Y-31475714D02*
X149604190Y-31551905D01*
X149604190Y-31551905D02*
X149642285Y-31590000D01*
X149642285Y-31590000D02*
X149718476Y-31628095D01*
X149718476Y-31628095D02*
X149870857Y-31666190D01*
X149870857Y-31666190D02*
X150061333Y-31666190D01*
X150061333Y-31666190D02*
X150213714Y-31628095D01*
X150213714Y-31628095D02*
X150289904Y-31590000D01*
X150289904Y-31590000D02*
X150328000Y-31551905D01*
X150328000Y-31551905D02*
X150366095Y-31475714D01*
X150366095Y-31475714D02*
X150366095Y-31399524D01*
X150366095Y-31399524D02*
X150328000Y-31323333D01*
X150328000Y-31323333D02*
X150289904Y-31285238D01*
X150289904Y-31285238D02*
X150213714Y-31247143D01*
X150213714Y-31247143D02*
X150061333Y-31209047D01*
X150061333Y-31209047D02*
X149870857Y-31209047D01*
X149870857Y-31209047D02*
X149718476Y-31247143D01*
X149718476Y-31247143D02*
X149642285Y-31285238D01*
X149642285Y-31285238D02*
X149604190Y-31323333D01*
X149604190Y-31323333D02*
X149566095Y-31399524D01*
X155496895Y-26796171D02*
X154696895Y-26796171D01*
X154696895Y-26796171D02*
X154696895Y-26986647D01*
X154696895Y-26986647D02*
X154734990Y-27100933D01*
X154734990Y-27100933D02*
X154811180Y-27177123D01*
X154811180Y-27177123D02*
X154887371Y-27215218D01*
X154887371Y-27215218D02*
X155039752Y-27253314D01*
X155039752Y-27253314D02*
X155154038Y-27253314D01*
X155154038Y-27253314D02*
X155306419Y-27215218D01*
X155306419Y-27215218D02*
X155382609Y-27177123D01*
X155382609Y-27177123D02*
X155458800Y-27100933D01*
X155458800Y-27100933D02*
X155496895Y-26986647D01*
X155496895Y-26986647D02*
X155496895Y-26796171D01*
X155496895Y-28015218D02*
X155496895Y-27558075D01*
X155496895Y-27786647D02*
X154696895Y-27786647D01*
X154696895Y-27786647D02*
X154811180Y-27710456D01*
X154811180Y-27710456D02*
X154887371Y-27634266D01*
X154887371Y-27634266D02*
X154925466Y-27558075D01*
X154696895Y-28510457D02*
X154696895Y-28586647D01*
X154696895Y-28586647D02*
X154734990Y-28662838D01*
X154734990Y-28662838D02*
X154773085Y-28700933D01*
X154773085Y-28700933D02*
X154849276Y-28739028D01*
X154849276Y-28739028D02*
X155001657Y-28777123D01*
X155001657Y-28777123D02*
X155192133Y-28777123D01*
X155192133Y-28777123D02*
X155344514Y-28739028D01*
X155344514Y-28739028D02*
X155420704Y-28700933D01*
X155420704Y-28700933D02*
X155458800Y-28662838D01*
X155458800Y-28662838D02*
X155496895Y-28586647D01*
X155496895Y-28586647D02*
X155496895Y-28510457D01*
X155496895Y-28510457D02*
X155458800Y-28434266D01*
X155458800Y-28434266D02*
X155420704Y-28396171D01*
X155420704Y-28396171D02*
X155344514Y-28358076D01*
X155344514Y-28358076D02*
X155192133Y-28319980D01*
X155192133Y-28319980D02*
X155001657Y-28319980D01*
X155001657Y-28319980D02*
X154849276Y-28358076D01*
X154849276Y-28358076D02*
X154773085Y-28396171D01*
X154773085Y-28396171D02*
X154734990Y-28434266D01*
X154734990Y-28434266D02*
X154696895Y-28510457D01*
X129360390Y-26929476D02*
X129322295Y-26853286D01*
X129322295Y-26853286D02*
X129322295Y-26739000D01*
X129322295Y-26739000D02*
X129360390Y-26624714D01*
X129360390Y-26624714D02*
X129436580Y-26548524D01*
X129436580Y-26548524D02*
X129512771Y-26510429D01*
X129512771Y-26510429D02*
X129665152Y-26472333D01*
X129665152Y-26472333D02*
X129779438Y-26472333D01*
X129779438Y-26472333D02*
X129931819Y-26510429D01*
X129931819Y-26510429D02*
X130008009Y-26548524D01*
X130008009Y-26548524D02*
X130084200Y-26624714D01*
X130084200Y-26624714D02*
X130122295Y-26739000D01*
X130122295Y-26739000D02*
X130122295Y-26815191D01*
X130122295Y-26815191D02*
X130084200Y-26929476D01*
X130084200Y-26929476D02*
X130046104Y-26967572D01*
X130046104Y-26967572D02*
X129779438Y-26967572D01*
X129779438Y-26967572D02*
X129779438Y-26815191D01*
X130122295Y-27310429D02*
X129322295Y-27310429D01*
X129322295Y-27310429D02*
X130122295Y-27767572D01*
X130122295Y-27767572D02*
X129322295Y-27767572D01*
X130122295Y-28148524D02*
X129322295Y-28148524D01*
X129322295Y-28148524D02*
X129322295Y-28339000D01*
X129322295Y-28339000D02*
X129360390Y-28453286D01*
X129360390Y-28453286D02*
X129436580Y-28529476D01*
X129436580Y-28529476D02*
X129512771Y-28567571D01*
X129512771Y-28567571D02*
X129665152Y-28605667D01*
X129665152Y-28605667D02*
X129779438Y-28605667D01*
X129779438Y-28605667D02*
X129931819Y-28567571D01*
X129931819Y-28567571D02*
X130008009Y-28529476D01*
X130008009Y-28529476D02*
X130084200Y-28453286D01*
X130084200Y-28453286D02*
X130122295Y-28339000D01*
X130122295Y-28339000D02*
X130122295Y-28148524D01*
X134364190Y-37648276D02*
X134326095Y-37572086D01*
X134326095Y-37572086D02*
X134326095Y-37457800D01*
X134326095Y-37457800D02*
X134364190Y-37343514D01*
X134364190Y-37343514D02*
X134440380Y-37267324D01*
X134440380Y-37267324D02*
X134516571Y-37229229D01*
X134516571Y-37229229D02*
X134668952Y-37191133D01*
X134668952Y-37191133D02*
X134783238Y-37191133D01*
X134783238Y-37191133D02*
X134935619Y-37229229D01*
X134935619Y-37229229D02*
X135011809Y-37267324D01*
X135011809Y-37267324D02*
X135088000Y-37343514D01*
X135088000Y-37343514D02*
X135126095Y-37457800D01*
X135126095Y-37457800D02*
X135126095Y-37533991D01*
X135126095Y-37533991D02*
X135088000Y-37648276D01*
X135088000Y-37648276D02*
X135049904Y-37686372D01*
X135049904Y-37686372D02*
X134783238Y-37686372D01*
X134783238Y-37686372D02*
X134783238Y-37533991D01*
X135126095Y-38029229D02*
X134326095Y-38029229D01*
X134326095Y-38029229D02*
X135126095Y-38486372D01*
X135126095Y-38486372D02*
X134326095Y-38486372D01*
X135126095Y-38867324D02*
X134326095Y-38867324D01*
X134326095Y-38867324D02*
X134326095Y-39057800D01*
X134326095Y-39057800D02*
X134364190Y-39172086D01*
X134364190Y-39172086D02*
X134440380Y-39248276D01*
X134440380Y-39248276D02*
X134516571Y-39286371D01*
X134516571Y-39286371D02*
X134668952Y-39324467D01*
X134668952Y-39324467D02*
X134783238Y-39324467D01*
X134783238Y-39324467D02*
X134935619Y-39286371D01*
X134935619Y-39286371D02*
X135011809Y-39248276D01*
X135011809Y-39248276D02*
X135088000Y-39172086D01*
X135088000Y-39172086D02*
X135126095Y-39057800D01*
X135126095Y-39057800D02*
X135126095Y-38867324D01*
X152982295Y-37870524D02*
X152182295Y-37870524D01*
X152182295Y-37870524D02*
X152182295Y-38061000D01*
X152182295Y-38061000D02*
X152220390Y-38175286D01*
X152220390Y-38175286D02*
X152296580Y-38251476D01*
X152296580Y-38251476D02*
X152372771Y-38289571D01*
X152372771Y-38289571D02*
X152525152Y-38327667D01*
X152525152Y-38327667D02*
X152639438Y-38327667D01*
X152639438Y-38327667D02*
X152791819Y-38289571D01*
X152791819Y-38289571D02*
X152868009Y-38251476D01*
X152868009Y-38251476D02*
X152944200Y-38175286D01*
X152944200Y-38175286D02*
X152982295Y-38061000D01*
X152982295Y-38061000D02*
X152982295Y-37870524D01*
X152525152Y-38784809D02*
X152487057Y-38708619D01*
X152487057Y-38708619D02*
X152448961Y-38670524D01*
X152448961Y-38670524D02*
X152372771Y-38632428D01*
X152372771Y-38632428D02*
X152334676Y-38632428D01*
X152334676Y-38632428D02*
X152258485Y-38670524D01*
X152258485Y-38670524D02*
X152220390Y-38708619D01*
X152220390Y-38708619D02*
X152182295Y-38784809D01*
X152182295Y-38784809D02*
X152182295Y-38937190D01*
X152182295Y-38937190D02*
X152220390Y-39013381D01*
X152220390Y-39013381D02*
X152258485Y-39051476D01*
X152258485Y-39051476D02*
X152334676Y-39089571D01*
X152334676Y-39089571D02*
X152372771Y-39089571D01*
X152372771Y-39089571D02*
X152448961Y-39051476D01*
X152448961Y-39051476D02*
X152487057Y-39013381D01*
X152487057Y-39013381D02*
X152525152Y-38937190D01*
X152525152Y-38937190D02*
X152525152Y-38784809D01*
X152525152Y-38784809D02*
X152563247Y-38708619D01*
X152563247Y-38708619D02*
X152601342Y-38670524D01*
X152601342Y-38670524D02*
X152677533Y-38632428D01*
X152677533Y-38632428D02*
X152829914Y-38632428D01*
X152829914Y-38632428D02*
X152906104Y-38670524D01*
X152906104Y-38670524D02*
X152944200Y-38708619D01*
X152944200Y-38708619D02*
X152982295Y-38784809D01*
X152982295Y-38784809D02*
X152982295Y-38937190D01*
X152982295Y-38937190D02*
X152944200Y-39013381D01*
X152944200Y-39013381D02*
X152906104Y-39051476D01*
X152906104Y-39051476D02*
X152829914Y-39089571D01*
X152829914Y-39089571D02*
X152677533Y-39089571D01*
X152677533Y-39089571D02*
X152601342Y-39051476D01*
X152601342Y-39051476D02*
X152563247Y-39013381D01*
X152563247Y-39013381D02*
X152525152Y-38937190D01*
X150442295Y-37870524D02*
X149642295Y-37870524D01*
X149642295Y-37870524D02*
X149642295Y-38061000D01*
X149642295Y-38061000D02*
X149680390Y-38175286D01*
X149680390Y-38175286D02*
X149756580Y-38251476D01*
X149756580Y-38251476D02*
X149832771Y-38289571D01*
X149832771Y-38289571D02*
X149985152Y-38327667D01*
X149985152Y-38327667D02*
X150099438Y-38327667D01*
X150099438Y-38327667D02*
X150251819Y-38289571D01*
X150251819Y-38289571D02*
X150328009Y-38251476D01*
X150328009Y-38251476D02*
X150404200Y-38175286D01*
X150404200Y-38175286D02*
X150442295Y-38061000D01*
X150442295Y-38061000D02*
X150442295Y-37870524D01*
X149642295Y-38594333D02*
X149642295Y-39127667D01*
X149642295Y-39127667D02*
X150442295Y-38784809D01*
X125042295Y-26834238D02*
X124242295Y-26834238D01*
X124242295Y-26834238D02*
X124242295Y-27024714D01*
X124242295Y-27024714D02*
X124280390Y-27139000D01*
X124280390Y-27139000D02*
X124356580Y-27215190D01*
X124356580Y-27215190D02*
X124432771Y-27253285D01*
X124432771Y-27253285D02*
X124585152Y-27291381D01*
X124585152Y-27291381D02*
X124699438Y-27291381D01*
X124699438Y-27291381D02*
X124851819Y-27253285D01*
X124851819Y-27253285D02*
X124928009Y-27215190D01*
X124928009Y-27215190D02*
X125004200Y-27139000D01*
X125004200Y-27139000D02*
X125042295Y-27024714D01*
X125042295Y-27024714D02*
X125042295Y-26834238D01*
X124737533Y-27634238D02*
X124737533Y-28243762D01*
X127582295Y-37870524D02*
X126782295Y-37870524D01*
X126782295Y-37870524D02*
X126782295Y-38061000D01*
X126782295Y-38061000D02*
X126820390Y-38175286D01*
X126820390Y-38175286D02*
X126896580Y-38251476D01*
X126896580Y-38251476D02*
X126972771Y-38289571D01*
X126972771Y-38289571D02*
X127125152Y-38327667D01*
X127125152Y-38327667D02*
X127239438Y-38327667D01*
X127239438Y-38327667D02*
X127391819Y-38289571D01*
X127391819Y-38289571D02*
X127468009Y-38251476D01*
X127468009Y-38251476D02*
X127544200Y-38175286D01*
X127544200Y-38175286D02*
X127582295Y-38061000D01*
X127582295Y-38061000D02*
X127582295Y-37870524D01*
X126782295Y-38822905D02*
X126782295Y-38899095D01*
X126782295Y-38899095D02*
X126820390Y-38975286D01*
X126820390Y-38975286D02*
X126858485Y-39013381D01*
X126858485Y-39013381D02*
X126934676Y-39051476D01*
X126934676Y-39051476D02*
X127087057Y-39089571D01*
X127087057Y-39089571D02*
X127277533Y-39089571D01*
X127277533Y-39089571D02*
X127429914Y-39051476D01*
X127429914Y-39051476D02*
X127506104Y-39013381D01*
X127506104Y-39013381D02*
X127544200Y-38975286D01*
X127544200Y-38975286D02*
X127582295Y-38899095D01*
X127582295Y-38899095D02*
X127582295Y-38822905D01*
X127582295Y-38822905D02*
X127544200Y-38746714D01*
X127544200Y-38746714D02*
X127506104Y-38708619D01*
X127506104Y-38708619D02*
X127429914Y-38670524D01*
X127429914Y-38670524D02*
X127277533Y-38632428D01*
X127277533Y-38632428D02*
X127087057Y-38632428D01*
X127087057Y-38632428D02*
X126934676Y-38670524D01*
X126934676Y-38670524D02*
X126858485Y-38708619D01*
X126858485Y-38708619D02*
X126820390Y-38746714D01*
X126820390Y-38746714D02*
X126782295Y-38822905D01*
X140282295Y-37870524D02*
X139482295Y-37870524D01*
X139482295Y-37870524D02*
X139482295Y-38061000D01*
X139482295Y-38061000D02*
X139520390Y-38175286D01*
X139520390Y-38175286D02*
X139596580Y-38251476D01*
X139596580Y-38251476D02*
X139672771Y-38289571D01*
X139672771Y-38289571D02*
X139825152Y-38327667D01*
X139825152Y-38327667D02*
X139939438Y-38327667D01*
X139939438Y-38327667D02*
X140091819Y-38289571D01*
X140091819Y-38289571D02*
X140168009Y-38251476D01*
X140168009Y-38251476D02*
X140244200Y-38175286D01*
X140244200Y-38175286D02*
X140282295Y-38061000D01*
X140282295Y-38061000D02*
X140282295Y-37870524D01*
X139482295Y-38594333D02*
X139482295Y-39089571D01*
X139482295Y-39089571D02*
X139787057Y-38822905D01*
X139787057Y-38822905D02*
X139787057Y-38937190D01*
X139787057Y-38937190D02*
X139825152Y-39013381D01*
X139825152Y-39013381D02*
X139863247Y-39051476D01*
X139863247Y-39051476D02*
X139939438Y-39089571D01*
X139939438Y-39089571D02*
X140129914Y-39089571D01*
X140129914Y-39089571D02*
X140206104Y-39051476D01*
X140206104Y-39051476D02*
X140244200Y-39013381D01*
X140244200Y-39013381D02*
X140282295Y-38937190D01*
X140282295Y-38937190D02*
X140282295Y-38708619D01*
X140282295Y-38708619D02*
X140244200Y-38632428D01*
X140244200Y-38632428D02*
X140206104Y-38594333D01*
X155512295Y-37909524D02*
X154712295Y-37909524D01*
X154712295Y-37909524D02*
X154712295Y-38100000D01*
X154712295Y-38100000D02*
X154750390Y-38214286D01*
X154750390Y-38214286D02*
X154826580Y-38290476D01*
X154826580Y-38290476D02*
X154902771Y-38328571D01*
X154902771Y-38328571D02*
X155055152Y-38366667D01*
X155055152Y-38366667D02*
X155169438Y-38366667D01*
X155169438Y-38366667D02*
X155321819Y-38328571D01*
X155321819Y-38328571D02*
X155398009Y-38290476D01*
X155398009Y-38290476D02*
X155474200Y-38214286D01*
X155474200Y-38214286D02*
X155512295Y-38100000D01*
X155512295Y-38100000D02*
X155512295Y-37909524D01*
X155512295Y-38747619D02*
X155512295Y-38900000D01*
X155512295Y-38900000D02*
X155474200Y-38976190D01*
X155474200Y-38976190D02*
X155436104Y-39014286D01*
X155436104Y-39014286D02*
X155321819Y-39090476D01*
X155321819Y-39090476D02*
X155169438Y-39128571D01*
X155169438Y-39128571D02*
X154864676Y-39128571D01*
X154864676Y-39128571D02*
X154788485Y-39090476D01*
X154788485Y-39090476D02*
X154750390Y-39052381D01*
X154750390Y-39052381D02*
X154712295Y-38976190D01*
X154712295Y-38976190D02*
X154712295Y-38823809D01*
X154712295Y-38823809D02*
X154750390Y-38747619D01*
X154750390Y-38747619D02*
X154788485Y-38709524D01*
X154788485Y-38709524D02*
X154864676Y-38671428D01*
X154864676Y-38671428D02*
X155055152Y-38671428D01*
X155055152Y-38671428D02*
X155131342Y-38709524D01*
X155131342Y-38709524D02*
X155169438Y-38747619D01*
X155169438Y-38747619D02*
X155207533Y-38823809D01*
X155207533Y-38823809D02*
X155207533Y-38976190D01*
X155207533Y-38976190D02*
X155169438Y-39052381D01*
X155169438Y-39052381D02*
X155131342Y-39090476D01*
X155131342Y-39090476D02*
X155055152Y-39128571D01*
X139977523Y-26777218D02*
X139977523Y-27158171D01*
X140206095Y-26701028D02*
X139406095Y-26967695D01*
X139406095Y-26967695D02*
X140206095Y-27234361D01*
X139482285Y-27462932D02*
X139444190Y-27501028D01*
X139444190Y-27501028D02*
X139406095Y-27577218D01*
X139406095Y-27577218D02*
X139406095Y-27767694D01*
X139406095Y-27767694D02*
X139444190Y-27843885D01*
X139444190Y-27843885D02*
X139482285Y-27881980D01*
X139482285Y-27881980D02*
X139558476Y-27920075D01*
X139558476Y-27920075D02*
X139634666Y-27920075D01*
X139634666Y-27920075D02*
X139748952Y-27881980D01*
X139748952Y-27881980D02*
X140206095Y-27424837D01*
X140206095Y-27424837D02*
X140206095Y-27920075D01*
X139368000Y-28834361D02*
X140396571Y-28148647D01*
X139482285Y-29062932D02*
X139444190Y-29101028D01*
X139444190Y-29101028D02*
X139406095Y-29177218D01*
X139406095Y-29177218D02*
X139406095Y-29367694D01*
X139406095Y-29367694D02*
X139444190Y-29443885D01*
X139444190Y-29443885D02*
X139482285Y-29481980D01*
X139482285Y-29481980D02*
X139558476Y-29520075D01*
X139558476Y-29520075D02*
X139634666Y-29520075D01*
X139634666Y-29520075D02*
X139748952Y-29481980D01*
X139748952Y-29481980D02*
X140206095Y-29024837D01*
X140206095Y-29024837D02*
X140206095Y-29520075D01*
X139748952Y-29977218D02*
X139710857Y-29901028D01*
X139710857Y-29901028D02*
X139672761Y-29862933D01*
X139672761Y-29862933D02*
X139596571Y-29824837D01*
X139596571Y-29824837D02*
X139558476Y-29824837D01*
X139558476Y-29824837D02*
X139482285Y-29862933D01*
X139482285Y-29862933D02*
X139444190Y-29901028D01*
X139444190Y-29901028D02*
X139406095Y-29977218D01*
X139406095Y-29977218D02*
X139406095Y-30129599D01*
X139406095Y-30129599D02*
X139444190Y-30205790D01*
X139444190Y-30205790D02*
X139482285Y-30243885D01*
X139482285Y-30243885D02*
X139558476Y-30281980D01*
X139558476Y-30281980D02*
X139596571Y-30281980D01*
X139596571Y-30281980D02*
X139672761Y-30243885D01*
X139672761Y-30243885D02*
X139710857Y-30205790D01*
X139710857Y-30205790D02*
X139748952Y-30129599D01*
X139748952Y-30129599D02*
X139748952Y-29977218D01*
X139748952Y-29977218D02*
X139787047Y-29901028D01*
X139787047Y-29901028D02*
X139825142Y-29862933D01*
X139825142Y-29862933D02*
X139901333Y-29824837D01*
X139901333Y-29824837D02*
X140053714Y-29824837D01*
X140053714Y-29824837D02*
X140129904Y-29862933D01*
X140129904Y-29862933D02*
X140168000Y-29901028D01*
X140168000Y-29901028D02*
X140206095Y-29977218D01*
X140206095Y-29977218D02*
X140206095Y-30129599D01*
X140206095Y-30129599D02*
X140168000Y-30205790D01*
X140168000Y-30205790D02*
X140129904Y-30243885D01*
X140129904Y-30243885D02*
X140053714Y-30281980D01*
X140053714Y-30281980D02*
X139901333Y-30281980D01*
X139901333Y-30281980D02*
X139825142Y-30243885D01*
X139825142Y-30243885D02*
X139787047Y-30205790D01*
X139787047Y-30205790D02*
X139748952Y-30129599D01*
X142822295Y-37870524D02*
X142022295Y-37870524D01*
X142022295Y-37870524D02*
X142022295Y-38061000D01*
X142022295Y-38061000D02*
X142060390Y-38175286D01*
X142060390Y-38175286D02*
X142136580Y-38251476D01*
X142136580Y-38251476D02*
X142212771Y-38289571D01*
X142212771Y-38289571D02*
X142365152Y-38327667D01*
X142365152Y-38327667D02*
X142479438Y-38327667D01*
X142479438Y-38327667D02*
X142631819Y-38289571D01*
X142631819Y-38289571D02*
X142708009Y-38251476D01*
X142708009Y-38251476D02*
X142784200Y-38175286D01*
X142784200Y-38175286D02*
X142822295Y-38061000D01*
X142822295Y-38061000D02*
X142822295Y-37870524D01*
X142288961Y-39013381D02*
X142822295Y-39013381D01*
X141984200Y-38822905D02*
X142555628Y-38632428D01*
X142555628Y-38632428D02*
X142555628Y-39127667D01*
X142517523Y-26777218D02*
X142517523Y-27158171D01*
X142746095Y-26701028D02*
X141946095Y-26967695D01*
X141946095Y-26967695D02*
X142746095Y-27234361D01*
X142746095Y-27920075D02*
X142746095Y-27462932D01*
X142746095Y-27691504D02*
X141946095Y-27691504D01*
X141946095Y-27691504D02*
X142060380Y-27615313D01*
X142060380Y-27615313D02*
X142136571Y-27539123D01*
X142136571Y-27539123D02*
X142174666Y-27462932D01*
X141908000Y-28834361D02*
X142936571Y-28148647D01*
X142022285Y-29062932D02*
X141984190Y-29101028D01*
X141984190Y-29101028D02*
X141946095Y-29177218D01*
X141946095Y-29177218D02*
X141946095Y-29367694D01*
X141946095Y-29367694D02*
X141984190Y-29443885D01*
X141984190Y-29443885D02*
X142022285Y-29481980D01*
X142022285Y-29481980D02*
X142098476Y-29520075D01*
X142098476Y-29520075D02*
X142174666Y-29520075D01*
X142174666Y-29520075D02*
X142288952Y-29481980D01*
X142288952Y-29481980D02*
X142746095Y-29024837D01*
X142746095Y-29024837D02*
X142746095Y-29520075D01*
X141946095Y-29786742D02*
X141946095Y-30320076D01*
X141946095Y-30320076D02*
X142746095Y-29977218D01*
X147864200Y-26701075D02*
X147902295Y-26815361D01*
X147902295Y-26815361D02*
X147902295Y-27005837D01*
X147902295Y-27005837D02*
X147864200Y-27082028D01*
X147864200Y-27082028D02*
X147826104Y-27120123D01*
X147826104Y-27120123D02*
X147749914Y-27158218D01*
X147749914Y-27158218D02*
X147673723Y-27158218D01*
X147673723Y-27158218D02*
X147597533Y-27120123D01*
X147597533Y-27120123D02*
X147559438Y-27082028D01*
X147559438Y-27082028D02*
X147521342Y-27005837D01*
X147521342Y-27005837D02*
X147483247Y-26853456D01*
X147483247Y-26853456D02*
X147445152Y-26777266D01*
X147445152Y-26777266D02*
X147407057Y-26739171D01*
X147407057Y-26739171D02*
X147330866Y-26701075D01*
X147330866Y-26701075D02*
X147254676Y-26701075D01*
X147254676Y-26701075D02*
X147178485Y-26739171D01*
X147178485Y-26739171D02*
X147140390Y-26777266D01*
X147140390Y-26777266D02*
X147102295Y-26853456D01*
X147102295Y-26853456D02*
X147102295Y-27043933D01*
X147102295Y-27043933D02*
X147140390Y-27158218D01*
X147826104Y-27958219D02*
X147864200Y-27920123D01*
X147864200Y-27920123D02*
X147902295Y-27805838D01*
X147902295Y-27805838D02*
X147902295Y-27729647D01*
X147902295Y-27729647D02*
X147864200Y-27615361D01*
X147864200Y-27615361D02*
X147788009Y-27539171D01*
X147788009Y-27539171D02*
X147711819Y-27501076D01*
X147711819Y-27501076D02*
X147559438Y-27462980D01*
X147559438Y-27462980D02*
X147445152Y-27462980D01*
X147445152Y-27462980D02*
X147292771Y-27501076D01*
X147292771Y-27501076D02*
X147216580Y-27539171D01*
X147216580Y-27539171D02*
X147140390Y-27615361D01*
X147140390Y-27615361D02*
X147102295Y-27729647D01*
X147102295Y-27729647D02*
X147102295Y-27805838D01*
X147102295Y-27805838D02*
X147140390Y-27920123D01*
X147140390Y-27920123D02*
X147178485Y-27958219D01*
X147902295Y-28301076D02*
X147102295Y-28301076D01*
X147902295Y-28758219D02*
X147445152Y-28415361D01*
X147102295Y-28758219D02*
X147559438Y-28301076D01*
X147064200Y-29672504D02*
X148092771Y-28986790D01*
X147902295Y-30358218D02*
X147902295Y-29901075D01*
X147902295Y-30129647D02*
X147102295Y-30129647D01*
X147102295Y-30129647D02*
X147216580Y-30053456D01*
X147216580Y-30053456D02*
X147292771Y-29977266D01*
X147292771Y-29977266D02*
X147330866Y-29901075D01*
X147445152Y-30815361D02*
X147407057Y-30739171D01*
X147407057Y-30739171D02*
X147368961Y-30701076D01*
X147368961Y-30701076D02*
X147292771Y-30662980D01*
X147292771Y-30662980D02*
X147254676Y-30662980D01*
X147254676Y-30662980D02*
X147178485Y-30701076D01*
X147178485Y-30701076D02*
X147140390Y-30739171D01*
X147140390Y-30739171D02*
X147102295Y-30815361D01*
X147102295Y-30815361D02*
X147102295Y-30967742D01*
X147102295Y-30967742D02*
X147140390Y-31043933D01*
X147140390Y-31043933D02*
X147178485Y-31082028D01*
X147178485Y-31082028D02*
X147254676Y-31120123D01*
X147254676Y-31120123D02*
X147292771Y-31120123D01*
X147292771Y-31120123D02*
X147368961Y-31082028D01*
X147368961Y-31082028D02*
X147407057Y-31043933D01*
X147407057Y-31043933D02*
X147445152Y-30967742D01*
X147445152Y-30967742D02*
X147445152Y-30815361D01*
X147445152Y-30815361D02*
X147483247Y-30739171D01*
X147483247Y-30739171D02*
X147521342Y-30701076D01*
X147521342Y-30701076D02*
X147597533Y-30662980D01*
X147597533Y-30662980D02*
X147749914Y-30662980D01*
X147749914Y-30662980D02*
X147826104Y-30701076D01*
X147826104Y-30701076D02*
X147864200Y-30739171D01*
X147864200Y-30739171D02*
X147902295Y-30815361D01*
X147902295Y-30815361D02*
X147902295Y-30967742D01*
X147902295Y-30967742D02*
X147864200Y-31043933D01*
X147864200Y-31043933D02*
X147826104Y-31082028D01*
X147826104Y-31082028D02*
X147749914Y-31120123D01*
X147749914Y-31120123D02*
X147597533Y-31120123D01*
X147597533Y-31120123D02*
X147521342Y-31082028D01*
X147521342Y-31082028D02*
X147483247Y-31043933D01*
X147483247Y-31043933D02*
X147445152Y-30967742D01*
D11*
%TO.C,U1*%
X120870000Y-24110000D02*
X120870000Y-41890000D01*
X120870000Y-41890000D02*
X156430000Y-41890000D01*
X123410000Y-39350000D02*
X123410000Y-41890000D01*
X123410000Y-39350000D02*
X125950000Y-39350000D01*
X125950000Y-39350000D02*
X125950000Y-41890000D01*
X156430000Y-24110000D02*
X120870000Y-24110000D01*
X156430000Y-41890000D02*
X156430000Y-24110000D01*
%TD*%
D12*
%TO.C,U1*%
X155160000Y-25380000D03*
X152620000Y-25380000D03*
X150080000Y-25380000D03*
X147540000Y-25380000D03*
X145000000Y-25380000D03*
X142460000Y-25380000D03*
X139920000Y-25380000D03*
X137380000Y-25380000D03*
X134840000Y-25380000D03*
X132300000Y-25380000D03*
X129760000Y-25380000D03*
X127220000Y-25380000D03*
X124680000Y-25380000D03*
X155160000Y-40620000D03*
X152620000Y-40620000D03*
X150080000Y-40620000D03*
X147540000Y-40620000D03*
X145000000Y-40620000D03*
X142460000Y-40620000D03*
X139920000Y-40620000D03*
X137380000Y-40620000D03*
X134840000Y-40620000D03*
X132300000Y-40620000D03*
X129760000Y-40620000D03*
X127220000Y-40620000D03*
D13*
X124680000Y-40620000D03*
%TD*%
M02*
